<svg width="1129" height="98" viewBox="0 0 1129 98" fill="none" xmlns="http://www.w3.org/2000/svg">
<path d="M141.856 15.1338H125.679V22.7175C125.819 23.9714 125.682 25.2406 125.277 26.4361C124.873 27.6316 124.21 28.7244 123.336 29.6378C122.465 30.5505 121.403 31.2626 120.226 31.7242C119.05 32.1858 117.786 32.3858 116.523 32.3102H113.548V48.0656H124.018V73.3194C124.018 85.0493 131.512 92.2749 143.764 92.2749C146.981 92.4297 150.193 91.8629 153.162 90.6165V75.6677C151.602 76.0347 150.007 76.2331 148.404 76.2595C144.479 76.2595 141.86 74.9553 141.86 70.1005V48.0656H153.4V32.3102H141.86L141.856 15.1338ZM187.892 76.3801C186.02 76.3806 184.168 75.9904 182.456 75.2348C180.744 74.4791 179.21 73.3747 177.953 71.9927C176.698 70.6075 175.749 68.9759 175.166 67.2029C174.583 65.4299 174.38 63.5549 174.569 61.6989C174.569 51.7481 181.113 47.1271 187.892 47.1271C194.792 47.1271 201.215 51.7481 201.215 61.6989C201.215 71.6497 194.781 76.3989 187.892 76.3989V76.3801ZM187.892 30.5537C183.747 30.4325 179.619 31.1534 175.763 32.6723C171.906 34.1913 168.4 36.4766 165.459 39.3888C162.519 42.304 160.207 45.785 158.663 49.6194C157.119 53.4538 156.375 57.5613 156.477 61.6914C156.373 65.8279 157.115 69.9423 158.657 73.7846C160.199 77.627 162.509 81.1171 165.448 84.0429C168.386 86.9689 171.89 89.2695 175.749 90.8052C179.607 92.3408 183.738 93.0794 187.892 92.976C192.05 93.0893 196.188 92.3565 200.052 90.8224C203.915 89.2884 207.424 86.9853 210.364 84.0542C213.302 81.1277 215.611 77.6353 217.149 73.7903C218.687 69.9454 219.421 65.8285 219.307 61.6914C219.42 57.5587 218.683 53.4467 217.142 49.6077C215.602 45.7687 213.29 42.2836 210.348 39.3662C207.407 36.4479 203.898 34.1589 200.036 32.6396C196.175 31.1203 192.042 30.4028 187.892 30.5311V30.5537ZM244.288 91.1856V57.2927C244.204 55.9746 244.394 54.6535 244.848 53.4124C245.301 52.1713 246.008 51.037 246.923 50.0811C247.838 49.1252 248.942 48.3682 250.165 47.8579C251.388 47.3476 252.704 47.0949 254.03 47.1157C255.344 47.0312 256.659 47.2347 257.885 47.7117C259.11 48.1888 260.216 48.9279 261.123 49.8768C262.031 50.8257 262.718 51.9614 263.136 53.2037C263.555 54.446 263.695 55.7646 263.546 57.0665V91.1856H281.388V57.1871C281.317 55.8659 281.523 54.5443 281.991 53.3061C282.459 52.0678 283.18 50.9398 284.109 49.9933C285.037 49.0467 286.153 48.3023 287.385 47.807C288.617 47.3117 289.939 47.0763 291.267 47.1157C292.572 47.0444 293.876 47.2578 295.089 47.7412C296.303 48.2245 297.395 48.9661 298.29 49.914C299.185 50.8619 299.862 51.9932 300.272 53.2287C300.682 54.4642 300.816 55.774 300.665 57.0665V91.1856H318.151V53.041C318.151 37.0481 307.444 30.5311 296.263 30.5311C292.66 30.3068 289.062 31.0449 285.842 32.6691C282.621 34.2932 279.894 36.7445 277.944 39.7695C276.226 36.7213 273.664 34.2295 270.564 32.5914C267.463 30.9533 263.955 30.2381 260.457 30.5311C257.141 30.4822 253.861 31.2327 250.899 32.7186C247.937 34.2045 245.379 36.3817 243.444 39.0647V32.3102H226.196V91.1856H244.288ZM346.709 32.3102H328.617V91.1856H346.697L346.709 32.3102ZM327.069 14.3234C327.068 17.1004 328.167 19.7656 330.127 21.7412C332.087 23.7168 334.749 24.8436 337.538 24.8773C338.94 24.8887 340.331 24.6239 341.63 24.0979C342.929 23.572 344.111 22.7955 345.108 21.8129C346.102 20.8325 346.892 19.6662 347.434 18.381C347.975 17.0959 348.256 15.717 348.261 14.3234C348.256 12.9299 347.975 11.551 347.434 10.2658C346.892 8.98063 346.102 7.8144 345.108 6.83397C344.111 5.85141 342.929 5.07483 341.63 4.54891C340.331 4.023 338.94 3.75814 337.538 3.76958C334.749 3.8033 332.087 4.93009 330.127 6.90568C328.167 8.88127 327.068 11.5464 327.069 14.3234" fill="#FF0083"/>
<path fill-rule="evenodd" clip-rule="evenodd" d="M42.1112 4.35668C25.9438 7.34471 12.4684 20.0859 7.49299 37.0884C6.58564 40.1893 6.26442 43.5305 6.32004 49.2736C6.41112 58.5369 8.36696 66.0357 12.449 72.7707L14.9193 76.8456L28.6338 68.4145L42.349 59.9841L42.5354 77.1074L42.7217 94.2307H49.662H56.6024V77.3268C56.6024 65.5337 56.8332 60.4229 57.3658 60.4229C57.785 60.4229 63.9335 64.0317 71.0288 68.4433C80.9985 74.6416 84.1809 76.3025 85.0402 75.7558C86.1923 75.0236 91.845 64.2367 91.3173 63.7778C91.1532 63.6354 81.746 57.7809 70.4128 50.7683L49.8067 38.0184L35.9135 46.7034C28.2723 51.4797 21.6302 55.3877 21.1533 55.3877C20.5004 55.3877 20.3544 53.6506 20.5623 48.3744C20.8001 42.3458 21.1491 40.677 23.0479 36.4885C32.3035 16.0729 57.9644 12.4907 72.466 29.5895C75.2527 32.8753 77.9344 38.8751 78.8508 43.8765C79.2395 45.9935 79.6323 47.7803 79.7255 47.8479C79.8186 47.9155 82.8668 49.8001 86.4996 52.035L93.1048 56.0991L93.3218 50.1691C93.6187 42.0595 92.5132 36.7575 88.9331 29.1327C85.212 21.2052 81.1188 16.298 74.2835 11.5685C65.2274 5.30186 52.4696 2.44186 42.1112 4.35668Z" fill="url(#paint0_linear_3596_5102)"/>
<path d="M491 12H466.895C464.719 12 462.912 12.8323 461.474 14.4968L442.947 34.4178L423.737 13.7531C422.474 12.5844 420.965 12 419.211 12H395L429.368 49.0266L395.105 86H419.316C421.491 86 423.368 85.0615 424.947 83.1845L443.053 63.6884C455.123 76.7566 461.491 83.6095 462.158 84.2469C463.421 85.4156 464.93 86 466.684 86H490.895V85.9469C490.895 85.9469 490.877 85.9469 490.842 85.9469C490.807 85.9115 490.772 85.876 490.737 85.8406C490.702 85.7698 490.649 85.699 490.579 85.6281C490.509 85.5573 490.421 85.4865 490.316 85.4156C490.246 85.3094 490.14 85.1854 490 85.0438C489.895 84.9021 489.772 84.7428 489.632 84.5657C489.456 84.3886 489.281 84.1938 489.105 83.9813C488.895 83.7688 488.667 83.5386 488.421 83.2907C488.175 83.0074 487.912 82.7064 487.632 82.3876C487.316 82.0689 486.982 81.7148 486.632 81.3252C486.246 80.9356 485.842 80.5106 485.421 80.0502C485 79.5899 484.561 79.1117 484.105 78.6159C483.614 78.0847 483.088 77.5181 482.526 76.916C481.965 76.3139 481.368 75.6765 480.737 75.0036C480.105 74.2953 479.439 73.5693 478.737 72.8256C478 72.0464 477.246 71.2319 476.474 70.3819C475.667 69.5319 474.825 68.6289 473.947 67.6726C473.035 66.681 472.088 65.6717 471.105 64.6446C470.123 63.5822 469.088 62.4666 468 61.2979C466.912 60.1292 465.772 58.9074 464.579 57.6324C463.386 56.3221 462.14 54.9763 460.842 53.5951C460.737 53.5243 459.333 52.0014 456.632 49.0266L491 12Z" fill="white"/>
<path d="M661.455 78.5026C656.489 83.4684 649.771 85.9026 641.397 85.9026C633.024 85.9026 626.305 83.4684 621.339 78.5026C616.276 73.5368 613.842 67.2079 613.842 59.5158C613.842 51.8237 616.374 45.4947 621.339 40.5289C626.403 35.5631 633.024 33.1289 641.397 33.1289C649.771 33.1289 656.489 35.5631 661.455 40.5289C666.421 45.4947 668.953 51.8237 668.953 59.5158C668.953 67.2079 666.421 73.5368 661.455 78.5026ZM641.397 72.4658C645 72.4658 647.921 71.2974 650.063 68.8631C652.205 66.4289 653.276 63.3131 653.276 59.5158C653.276 55.621 652.205 52.5053 650.063 50.0711C647.921 47.6368 645 46.4684 641.397 46.4684C637.697 46.4684 634.776 47.6368 632.732 50.0711C630.687 52.5053 629.616 55.621 629.616 59.5158C629.616 63.4105 630.687 66.5263 632.732 68.9605C634.776 71.2974 637.697 72.4658 641.397 72.4658ZM676.06 84.4421V12H691.834V84.4421H676.06ZM751.716 84.4421H732.437L716.663 62.8263V84.4421H700.889V12H716.663V55.3289L732.826 34.5895H751.424L731.658 58.1526L751.716 84.4421Z" fill="white"/>
<path d="M774.208 85.8052C767.003 85.8052 761.258 83.371 757.071 78.4052C752.884 73.4394 750.742 67.2079 750.742 59.5158C750.742 51.921 752.884 45.6895 757.266 40.7237C761.55 35.7579 767.295 33.3237 774.403 33.3237C777.713 33.3237 780.926 34.1026 783.75 35.5631C786.379 37.0237 788.521 39.1658 789.982 41.7947V34.6868H805.658V84.4421H789.982V77.4315C788.619 79.8658 786.476 81.9105 783.653 83.4684C780.732 85.0263 777.519 85.8052 774.208 85.8052ZM778.784 72.6605C782.582 72.6605 785.503 71.3947 787.547 68.9605C789.69 66.5263 790.663 63.3131 790.663 59.5158C790.663 55.8158 789.592 52.7 787.547 50.2658C785.503 47.8316 782.582 46.5658 778.784 46.5658C775.182 46.5658 772.358 47.7342 770.216 50.1684C768.074 52.6026 766.905 55.7184 766.905 59.5158C766.905 63.4105 767.976 66.5263 770.216 68.9605C772.261 71.3947 775.182 72.6605 778.784 72.6605ZM836.037 86C828.929 86 823.184 84.4421 818.9 81.3263C814.616 78.2105 812.474 74.2184 812.474 69.4473H828.15C828.15 71.2 828.929 72.5631 830.39 73.7316C831.947 74.8026 833.895 75.3868 836.232 75.3868C837.984 75.3868 839.347 74.9973 840.418 74.121C841.49 73.3421 842.074 72.0763 842.074 70.7131C842.074 68.4737 840.905 67.0131 838.471 66.4289L826.3 63.3131C822.211 62.2421 819.192 60.4894 817.05 58.0552C814.908 55.5237 813.837 52.5052 813.837 49C813.837 44.3263 815.784 40.5289 819.582 37.6079C823.379 34.6868 828.637 33.2263 835.063 33.2263C842.171 33.2263 847.721 34.5895 851.518 37.3158C855.316 40.0421 857.263 43.9368 857.263 48.7079H841.684C841.782 47.15 841.1 45.6895 839.834 44.6184C838.666 43.6447 837.011 43.1579 834.868 43.1579C833.116 43.1579 831.753 43.5473 830.779 44.3263C829.805 45.0079 829.221 46.0789 829.221 47.3447C829.221 49.5842 830.584 51.0447 833.408 51.8237L845.19 55.0368C849.084 56.1079 852.2 57.7631 854.44 60.1974C856.679 62.5342 857.847 65.65 857.75 68.9605C857.75 74.121 855.803 78.3079 851.908 81.4237C848.111 84.3447 842.755 86 836.037 86ZM887.642 72.0763C889.492 72.0763 891.342 71.9789 893.095 71.7842V84.3447C889.59 84.9289 886.084 85.221 882.579 85.1237C881.021 85.1237 879.366 85.0263 877.808 84.8315C876.25 84.5394 874.692 84.0526 873.134 83.4684C871.479 82.7868 870.116 81.8131 868.947 80.5473C867.876 79.2816 866.903 77.5289 866.124 75.1921C865.247 72.5631 864.858 69.7394 864.955 66.9158V12.3895H880.729V34.6868H891.926V47.2473H880.729V63.8C880.729 67.2079 881.313 69.4473 882.482 70.6158C883.65 71.5894 885.403 72.1736 887.642 72.0763ZM921.818 85.8052C914.613 85.8052 908.868 83.371 904.682 78.4052C900.495 73.5368 898.353 67.2079 898.353 59.5158C898.353 51.921 900.495 45.6895 904.876 40.7237C909.258 35.7579 914.905 33.3237 922.013 33.3237C925.324 33.2263 928.537 34.0052 931.361 35.5631C933.99 36.9263 936.132 39.1658 937.495 41.7947V34.6868H953.171V84.4421H937.495V77.4315C936.132 79.8658 933.99 81.9105 931.166 83.4684C928.342 85.0263 925.129 85.8052 921.818 85.8052ZM926.395 72.6605C930.192 72.6605 933.113 71.3947 935.158 68.9605C937.203 66.5263 938.274 63.3131 938.274 59.5158C938.274 55.8158 937.203 52.7 935.158 50.2658C933.113 47.8316 930.192 46.5658 926.395 46.5658C922.792 46.5658 919.968 47.7342 917.826 50.1684C915.684 52.6026 914.516 55.7184 914.516 59.5158C914.516 63.4105 915.587 66.5263 917.826 68.9605C919.871 71.3947 922.792 72.6605 926.395 72.6605ZM960.376 84.4421V34.5894H976.15V45.0079C976.929 41.4052 978.682 38.6789 981.311 36.7316C983.745 34.7842 986.763 33.8105 989.879 33.8105C991.242 33.8105 992.703 33.9079 993.968 34.2V48.9026C992.411 48.7079 990.853 48.6105 989.197 48.6105C980.434 48.6105 976.15 54.1605 976.15 65.2605V84.5395C976.15 84.3447 960.376 84.4421 960.376 84.4421ZM1023.96 72.0763C1025.81 72.0763 1027.66 71.9789 1029.41 71.7842V84.3447C1025.91 84.9289 1022.4 85.221 1018.89 85.1237C1017.34 85.1237 1015.68 85.0263 1014.12 84.8315C1012.57 84.5394 1011.01 84.0526 1009.45 83.4684C1007.79 82.7868 1006.43 81.8131 1005.26 80.5473C1004.19 79.2816 1003.22 77.5289 1002.44 75.1921C1001.56 72.5631 1001.17 69.7394 1001.27 66.9158V12.3895H1017.04V34.6868H1028.24V47.2473H1017.04V63.8C1017.04 67.2079 1017.63 69.4473 1018.8 70.6158C1019.97 71.5894 1021.72 72.1736 1023.96 72.0763ZM1087.44 56.8868C1087.44 59.2237 1087.25 61.5605 1087.05 63.8H1050.34C1050.44 67.0131 1051.61 69.5447 1053.66 71.3947C1055.7 73.2447 1058.52 74.121 1062.03 74.0236C1066.8 74.0236 1069.92 72.4658 1071.28 69.35H1086.76C1085.98 74.2184 1083.35 78.2105 1078.78 81.3263C1074.2 84.4421 1068.65 85.9026 1062.03 85.9026C1053.56 85.9026 1046.94 83.5658 1041.97 78.8921C1037.1 74.2184 1034.67 67.6947 1034.67 59.4184C1034.67 51.3368 1037.1 44.9105 1041.97 40.1395C1046.84 35.3684 1053.36 33.0316 1061.44 33.0316C1069.14 33.0316 1075.37 35.271 1080.24 39.6526C1085.01 44.1316 1087.44 49.8763 1087.44 56.8868ZM1050.34 53.9658H1071.86C1071.77 50.6553 1070.89 48.1237 1069.04 46.371C1067.29 44.6184 1064.66 43.7421 1061.35 43.7421C1057.94 43.7421 1055.31 44.7158 1053.36 46.5658C1051.42 48.4158 1050.44 50.85 1050.34 53.9658ZM1094.65 84.4421V34.5894H1110.42V45.0079C1111.2 41.4052 1112.95 38.6789 1115.58 36.7316C1118.02 34.7842 1121.03 33.8105 1124.15 33.8105C1125.51 33.8105 1126.97 33.9079 1128.24 34.2V48.9026C1126.68 48.7079 1125.12 48.6105 1123.47 48.6105C1114.71 48.6105 1110.42 54.1605 1110.42 65.2605V84.5395L1094.65 84.4421Z" fill="white"/>
<path fill-rule="evenodd" clip-rule="evenodd" d="M603.813 19.4C598.945 14.4342 592.713 12 585.313 12H554.642V41.6974C561.555 43.9368 566.229 50.2658 566.132 57.5684C566.132 64.7737 561.458 71.2 554.642 73.4395V84.4421H571.292V64.3842H585.313C592.81 64.3842 598.945 61.95 603.813 56.9842C608.682 52.0184 611.116 45.7868 611.116 38.1921C611.116 30.5974 608.682 24.3658 603.813 19.4ZM591.058 47.15C588.916 49.4868 586.189 50.6552 582.782 50.6552H571.292V25.6316H582.684C586.092 25.6316 588.818 26.8 590.96 29.1368C593.103 31.4737 594.174 34.4921 594.174 38.0947C594.271 41.7947 593.2 44.8132 591.058 47.15Z" fill="white"/>
<path d="M546.074 69.8368C552.792 69.8368 558.147 64.3842 558.147 57.6658C558.147 50.9474 552.695 45.5921 546.074 45.5921C539.355 45.5921 534 51.0447 534 57.6658C534 64.3842 539.355 69.8368 546.074 69.8368Z" fill="#F35165"/>
<defs>
<linearGradient id="paint0_linear_3596_5102" x1="60.7714" y1="12.6451" x2="41.2843" y2="61.9075" gradientUnits="userSpaceOnUse">
<stop stop-color="#7A1DF2"/>
<stop offset="1" stop-color="#FF0083"/>
</linearGradient>
</defs>
</svg>
