<svg width="25" height="24" viewBox="0 0 25 24" fill="none" xmlns="http://www.w3.org/2000/svg">
<path fill-rule="evenodd" clip-rule="evenodd" d="M12.5 13.9394L9.03033 10.4697C8.73744 10.1768 8.26256 10.1768 7.96967 10.4697C7.67678 10.7626 7.67678 11.2375 7.96967 11.5304L11.899 15.4597C12.2309 15.7916 12.7691 15.7916 13.101 15.4597L17.0303 11.5304C17.3232 11.2375 17.3232 10.7626 17.0303 10.4697C16.7374 10.1768 16.2626 10.1768 15.9697 10.4697L12.5 13.9394Z" fill="white"/>
<path fill-rule="evenodd" clip-rule="evenodd" d="M12.5 14.75C12.0858 14.75 11.75 14.4142 11.75 14L11.75 2C11.75 1.58579 12.0858 1.25 12.5 1.25C12.9142 1.25 13.25 1.58579 13.25 2L13.25 14C13.25 14.4142 12.9142 14.75 12.5 14.75Z" fill="white"/>
<path fill-rule="evenodd" clip-rule="evenodd" d="M3 14.25C3.41421 14.25 3.75 14.5858 3.75 15V19.25H21.25V15.5C21.25 15.0858 21.5858 14.75 22 14.75C22.4142 14.75 22.75 15.0858 22.75 15.5V19.9C22.75 20.3694 22.3694 20.75 21.9 20.75H3.1C2.63056 20.75 2.25 20.3694 2.25 19.9V15C2.25 14.5858 2.58579 14.25 3 14.25Z" fill="white"/>
</svg>
