<svg width="423" height="421" viewBox="0 0 423 421" fill="none" xmlns="http://www.w3.org/2000/svg">
<path opacity="0.18" d="M197.357 67.7699C181.148 72.7953 166.832 82.452 152.904 92.1709C115.876 118.026 79.8475 145.246 44.8172 173.833C32.8294 183.609 20.7744 193.758 12.5066 206.853C-2.23368 230.191 -2.9632 260.416 5.21664 286.788C13.3965 313.16 29.5751 336.274 47.0678 357.605C50.8499 362.216 54.8751 366.899 60.2559 369.445C65.6367 371.992 71.9384 372.126 77.9504 371.945C112.258 370.908 145.81 362.013 179.875 357.942C232.752 351.599 286.223 356.905 339.457 358.461C359.754 359.047 381.365 358.736 398.475 347.757C415.585 336.777 425.379 315.358 422.502 295.2C420.003 277.634 409.019 262.387 404.911 245.127C399.541 222.583 406.329 198.794 403.245 175.819C398.801 142.342 373.516 114.612 343.958 98.441C319.724 85.1696 292.173 77.8467 265.135 72.8783C242.747 68.7708 219.952 60.7634 197.357 67.7699V67.7699Z" fill="url(#paint0_linear_27_76)"/>
<path fill-rule="evenodd" clip-rule="evenodd" d="M166.927 284.655C166.927 284.655 163.566 296.389 171.138 304.027C178.713 311.666 192.388 320.157 214.249 320.157C236.11 320.157 254.127 311.469 259.888 299.628C261.361 290.036 260.361 282.262 260.361 282.262L166.927 284.655Z" fill="url(#paint1_linear_27_76)"/>
<path fill-rule="evenodd" clip-rule="evenodd" d="M149.154 217.231C149.154 217.231 119.781 238.233 118.396 252.444C116.686 270.023 142.365 325.982 142.365 325.982L149.883 327.061L150.222 281.888L170.719 274.848L149.154 217.231Z" fill="url(#paint2_linear_27_76)"/>
<path fill-rule="evenodd" clip-rule="evenodd" d="M147.932 218.129C148.711 217.547 149.154 217.231 149.154 217.231L170.719 274.848L150.222 281.888L149.883 327.061L142.365 325.982C142.365 325.982 116.686 270.023 118.396 252.444C119.611 239.979 142.362 222.287 147.932 218.129ZM148.465 219.554C147.692 220.135 146.661 220.923 145.448 221.88C142.694 224.055 139.012 227.097 135.292 230.575C131.566 234.058 127.834 237.949 124.958 241.818C122.054 245.726 120.157 249.438 119.85 252.586M148.465 219.554L168.826 273.954L148.769 280.842L148.435 325.379L143.363 324.65C143.179 324.243 142.92 323.668 142.598 322.949C141.902 321.388 140.908 319.14 139.72 316.385C137.345 310.878 134.196 303.352 131.103 295.284C128.007 287.209 124.976 278.613 122.826 270.956C120.658 263.234 119.452 256.679 119.85 252.586" fill="url(#paint3_radial_27_76)"/>
<path fill-rule="evenodd" clip-rule="evenodd" d="M277.151 214.061C277.151 214.061 306.526 235.064 307.91 249.274C309.62 266.854 283.941 322.813 283.941 322.813L276.425 323.89L276.086 278.718L255.587 271.678L277.151 214.061Z" fill="url(#paint4_linear_27_76)"/>
<path fill-rule="evenodd" clip-rule="evenodd" d="M278.376 214.96C277.595 214.377 277.151 214.061 277.151 214.061L255.587 271.678L276.086 278.718L276.425 323.89L283.941 322.813C283.941 322.813 309.62 266.854 307.91 249.274C306.695 236.809 283.946 219.117 278.376 214.96ZM277.841 216.385C278.614 216.966 279.647 217.753 280.859 218.711C283.612 220.885 287.294 223.928 291.014 227.405C294.741 230.888 298.472 234.779 301.349 238.648C304.253 242.556 306.15 246.268 306.456 249.416M277.841 216.385L257.481 270.785L277.537 277.673L277.871 322.208L282.944 321.481C283.128 321.072 283.385 320.5 283.708 319.778C284.404 318.22 285.399 315.969 286.586 313.217C288.963 307.707 292.11 300.184 295.203 292.113C298.299 284.04 301.332 275.444 303.482 267.787C305.648 260.064 306.856 253.509 306.456 249.416" fill="url(#paint5_radial_27_76)"/>
<path fill-rule="evenodd" clip-rule="evenodd" d="M278.224 139.344C264.686 69.5616 229.977 34.001 213.245 34.001C196.516 34.001 160.425 76.0391 150.329 139.344C144.048 178.733 146.073 236.792 155.948 265.041C162.742 284.475 175.841 308.843 214.264 308.843C253.709 308.843 260.042 291.158 269.811 267.039C281.252 238.79 285.855 178.704 278.224 139.344Z" fill="url(#paint6_linear_27_76)"/>
<path opacity="0.4" fill-rule="evenodd" clip-rule="evenodd" d="M148.997 148.982C168.016 157.251 192.926 162.265 220.183 162.265C242.434 162.265 263.125 158.923 280.322 153.193C280.715 156.595 281.032 160.085 281.282 163.637C263.894 169.563 242.848 173.032 220.183 173.032C192.428 173.032 167.104 167.831 147.964 159.294C148.258 155.777 148.602 152.333 148.997 148.982Z" fill="url(#paint7_linear_27_76)"/>
<path fill-rule="evenodd" clip-rule="evenodd" d="M174.506 70.5474C188.142 47.4336 203.786 34 213.245 34C223.124 34 239.271 46.4011 253.63 70.9264C242.622 76.2315 229.083 79.3642 214.455 79.3642C199.486 79.3642 185.657 76.0839 174.506 70.5474Z" fill="url(#paint8_linear_27_76)"/>
<path fill-rule="evenodd" clip-rule="evenodd" d="M174.506 70.5474C174.942 70.7635 175.382 70.9764 175.825 71.1858C186.739 76.3351 200.071 79.3642 214.455 79.3642C228.5 79.3642 241.541 76.4762 252.303 71.55C252.749 71.3456 253.192 71.1379 253.63 70.9264C253.381 70.5023 253.133 70.082 252.883 69.6651C238.715 45.9759 222.953 34 213.245 34C203.959 34 188.712 46.9469 175.256 69.2892C175.006 69.7053 174.756 70.1247 174.506 70.5474ZM176.578 69.9259C187.258 74.9394 200.326 77.9038 214.455 77.9038C228.245 77.9038 241.024 75.0801 251.553 70.2866C244.679 58.8177 237.457 50.1774 230.798 44.3666C223.819 38.2774 217.651 35.4603 213.245 35.4603C211.209 35.4603 208.701 36.1904 205.811 37.746C202.936 39.2943 199.765 41.6158 196.43 44.6813C190.026 50.5665 183.103 59.1114 176.578 69.9259Z" fill="url(#paint9_linear_27_76)"/>
<path fill-rule="evenodd" clip-rule="evenodd" d="M272.871 257.779L271.693 261.338C256.465 268.521 235.561 272.946 212.514 272.946C190.35 272.946 170.169 268.855 155.129 262.118L154.171 258.704C169.082 265.891 189.732 270.257 212.514 270.257C236.322 270.257 257.802 265.488 272.871 257.779Z" fill="url(#paint10_linear_27_76)"/>
<path fill-rule="evenodd" clip-rule="evenodd" d="M201.681 271.893C200.753 290.559 205.592 336.739 208.798 367.348C209.076 369.984 211.011 371.977 213.328 372.014C215.645 372.049 217.63 370.117 217.969 367.493C221.944 336.739 227.418 290.246 226.816 271.552C226.551 263.336 214.357 255.345 214.357 255.345C214.357 255.345 202.096 263.532 201.681 271.893Z" fill="url(#paint11_linear_27_76)"/>
<path d="M214.359 194.464C233.437 194.464 248.903 178.998 248.903 159.92C248.903 140.842 233.437 125.376 214.359 125.376C195.281 125.376 179.815 140.842 179.815 159.92C179.815 178.998 195.281 194.464 214.359 194.464Z" fill="url(#paint12_linear_27_76)"/>
<path d="M214.359 198.286C233.437 198.286 248.903 182.82 248.903 163.741C248.903 144.663 233.437 129.197 214.359 129.197C195.281 129.197 179.815 144.663 179.815 163.741C179.815 182.82 195.281 198.286 214.359 198.286Z" fill="url(#paint13_linear_27_76)"/>
<path fill-rule="evenodd" clip-rule="evenodd" d="M214.359 196.825C232.631 196.825 247.443 182.013 247.443 163.741C247.443 145.47 232.631 130.658 214.359 130.658C196.087 130.658 181.275 145.47 181.275 163.741C181.275 182.013 196.087 196.825 214.359 196.825ZM248.903 163.741C248.903 182.82 233.437 198.286 214.359 198.286C195.281 198.286 179.815 182.82 179.815 163.741C179.815 144.663 195.281 129.197 214.359 129.197C233.437 129.197 248.903 144.663 248.903 163.741Z" fill="url(#paint14_linear_27_76)"/>
<path d="M214.36 190.128C228.93 190.128 240.742 178.316 240.742 163.745C240.742 149.174 228.93 137.362 214.36 137.362C199.789 137.362 187.977 149.174 187.977 163.745C187.977 178.316 199.789 190.128 214.36 190.128Z" fill="url(#paint15_linear_27_76)"/>
<path d="M214.359 185.344C227.611 185.344 238.353 174.602 238.353 161.35C238.353 148.099 227.611 137.356 214.359 137.356C201.107 137.356 190.365 148.099 190.365 161.35C190.365 174.602 201.107 185.344 214.359 185.344Z" fill="url(#paint16_linear_27_76)"/>
<defs>
<linearGradient id="paint0_linear_27_76" x1="0" y1="65" x2="439.766" y2="91.2631" gradientUnits="userSpaceOnUse">
<stop stop-color="#7F5523"/>
<stop offset="0.520833" stop-color="#F5AC05"/>
<stop offset="0.817708" stop-color="#FEEA09"/>
</linearGradient>
<linearGradient id="paint1_linear_27_76" x1="166.184" y1="282.262" x2="263.65" y2="292.798" gradientUnits="userSpaceOnUse">
<stop stop-color="#7F5523"/>
<stop offset="0.520833" stop-color="#F5AC05"/>
<stop offset="0.817708" stop-color="#FEEA09"/>
</linearGradient>
<linearGradient id="paint2_linear_27_76" x1="118.314" y1="217.231" x2="172.967" y2="218.361" gradientUnits="userSpaceOnUse">
<stop stop-color="#7F5523"/>
<stop offset="0.520833" stop-color="#F5AC05"/>
<stop offset="0.817708" stop-color="#FEEA09"/>
</linearGradient>
<radialGradient id="paint3_radial_27_76" cx="0" cy="0" r="1" gradientUnits="userSpaceOnUse" gradientTransform="translate(148.544 224.011) rotate(94.374) scale(96.4295 49.2689)">
<stop stop-color="white"/>
<stop offset="1" stop-color="white" stop-opacity="0"/>
</radialGradient>
<linearGradient id="paint4_linear_27_76" x1="255.587" y1="214.061" x2="310.239" y2="215.191" gradientUnits="userSpaceOnUse">
<stop stop-color="#7F5523"/>
<stop offset="0.520833" stop-color="#F5AC05"/>
<stop offset="0.817708" stop-color="#FEEA09"/>
</linearGradient>
<radialGradient id="paint5_radial_27_76" cx="0" cy="0" r="1" gradientUnits="userSpaceOnUse" gradientTransform="translate(277.761 220.838) rotate(85.626) scale(96.4295 49.2689)">
<stop stop-color="white"/>
<stop offset="1" stop-color="white" stop-opacity="0"/>
</radialGradient>
<linearGradient id="paint6_linear_27_76" x1="146.742" y1="34.001" x2="287.775" y2="37.0088" gradientUnits="userSpaceOnUse">
<stop stop-color="#7F5523"/>
<stop offset="0.520833" stop-color="#F5AC05"/>
<stop offset="0.817708" stop-color="#FEEA09"/>
</linearGradient>
<linearGradient id="paint7_linear_27_76" x1="147.964" y1="148.982" x2="279.469" y2="180.579" gradientUnits="userSpaceOnUse">
<stop stop-color="#7F5523"/>
<stop offset="0.520833" stop-color="#F5AC05"/>
<stop offset="0.817708" stop-color="#FEEA09"/>
</linearGradient>
<linearGradient id="paint8_linear_27_76" x1="174.506" y1="34" x2="256.59" y2="40.2055" gradientUnits="userSpaceOnUse">
<stop stop-color="#7F5523"/>
<stop offset="0.520833" stop-color="#F5AC05"/>
<stop offset="0.817708" stop-color="#FEEA09"/>
</linearGradient>
<linearGradient id="paint9_linear_27_76" x1="174.506" y1="34" x2="256.59" y2="40.2055" gradientUnits="userSpaceOnUse">
<stop stop-color="#7F5523"/>
<stop offset="0.520833" stop-color="#F5AC05"/>
<stop offset="0.817708" stop-color="#FEEA09"/>
</linearGradient>
<linearGradient id="paint10_linear_27_76" x1="154.171" y1="257.779" x2="265.237" y2="295.451" gradientUnits="userSpaceOnUse">
<stop stop-color="#7F5523"/>
<stop offset="0.520833" stop-color="#F5AC05"/>
<stop offset="0.817708" stop-color="#FEEA09"/>
</linearGradient>
<linearGradient id="paint11_linear_27_76" x1="201.565" y1="255.345" x2="227.956" y2="255.593" gradientUnits="userSpaceOnUse">
<stop stop-color="#7F5523"/>
<stop offset="0.520833" stop-color="#F5AC05"/>
<stop offset="0.817708" stop-color="#FEEA09"/>
</linearGradient>
<linearGradient id="paint12_linear_27_76" x1="179.815" y1="125.376" x2="251.763" y2="128.494" gradientUnits="userSpaceOnUse">
<stop stop-color="#7F5523"/>
<stop offset="0.520833" stop-color="#F5AC05"/>
<stop offset="0.817708" stop-color="#FEEA09"/>
</linearGradient>
<linearGradient id="paint13_linear_27_76" x1="179.815" y1="129.197" x2="251.763" y2="132.316" gradientUnits="userSpaceOnUse">
<stop stop-color="#7F5523"/>
<stop offset="0.520833" stop-color="#F5AC05"/>
<stop offset="0.817708" stop-color="#FEEA09"/>
</linearGradient>
<linearGradient id="paint14_linear_27_76" x1="179.815" y1="129.197" x2="251.763" y2="132.316" gradientUnits="userSpaceOnUse">
<stop stop-color="#7F5523"/>
<stop offset="0.520833" stop-color="#F5AC05"/>
<stop offset="0.817708" stop-color="#FEEA09"/>
</linearGradient>
<linearGradient id="paint15_linear_27_76" x1="187.977" y1="137.362" x2="242.926" y2="139.744" gradientUnits="userSpaceOnUse">
<stop stop-color="#7F5523"/>
<stop offset="0.520833" stop-color="#F5AC05"/>
<stop offset="0.817708" stop-color="#FEEA09"/>
</linearGradient>
<linearGradient id="paint16_linear_27_76" x1="190.365" y1="137.356" x2="240.339" y2="139.522" gradientUnits="userSpaceOnUse">
<stop stop-color="#7F5523"/>
<stop offset="0.520833" stop-color="#F5AC05"/>
<stop offset="0.817708" stop-color="#FEEA09"/>
</linearGradient>
</defs>
</svg>
