<svg width="421" height="307" viewBox="0 0 421 307" fill="none" xmlns="http://www.w3.org/2000/svg">
<g clip-path="url(#clip0_27_57)">
<path opacity="0.18" d="M196.414 2.75493C180.282 7.75406 166.034 17.3602 152.173 27.0283C115.322 52.7479 79.4651 79.8261 44.6019 108.263C32.6713 117.988 20.6738 128.084 12.4454 141.111C-2.22449 164.326 -2.95053 194.393 5.19029 220.627C13.3311 246.861 29.4325 269.855 46.8418 291.074C50.6058 295.66 54.6119 300.319 59.967 302.852C65.3221 305.385 71.5938 305.519 77.5771 305.339C111.721 304.307 145.113 295.459 179.015 291.409C231.64 285.1 284.856 290.377 337.836 291.925C358.036 292.508 379.544 292.199 396.572 281.277C413.601 270.355 423.348 249.048 420.485 228.995C417.998 211.521 407.066 196.354 402.978 179.184C397.633 156.758 404.389 133.093 401.32 110.239C396.897 76.937 371.733 49.3515 342.316 33.2656C318.197 20.0636 290.778 12.779 263.868 7.8366C241.588 3.75063 218.901 -4.21495 196.414 2.75493V2.75493Z" fill="url(#paint0_linear_27_57)"/>
<path d="M151.601 207.678H241.737V277.913H151.601V207.678Z" fill="url(#paint1_linear_27_57)"/>
<path d="M151.601 207.678H241.737V277.913H151.601V207.678Z" fill="url(#paint2_linear_27_57)"/>
<path d="M383.663 47.8244V227.138C383.663 233.656 381.079 239.908 376.479 244.517C371.878 249.126 365.639 251.716 359.133 251.716H49.2774C42.771 251.716 36.5311 249.126 31.9299 244.517C27.3287 239.908 24.7431 233.657 24.7417 227.138V47.8244C24.7417 44.5964 25.3764 41.4 26.6095 38.4178C27.8426 35.4355 29.6499 32.7259 31.9284 30.4435C34.2068 28.1612 36.9116 26.3509 39.8884 25.1161C42.8652 23.8812 46.0556 23.246 49.2774 23.2467H359.133C362.355 23.246 365.545 23.8813 368.521 25.1162C371.498 26.3511 374.202 28.1615 376.48 30.4438C378.758 32.7262 380.565 35.4359 381.798 38.4182C383.03 41.4004 383.664 44.5967 383.663 47.8244V47.8244Z" fill="url(#paint3_linear_27_57)"/>
<path d="M383.663 47.8245V227.138C383.663 233.656 381.079 239.908 376.479 244.517C371.878 249.126 365.639 251.716 359.133 251.716H49.2774C43.8785 251.728 38.6276 249.948 34.3449 246.655C31.0554 242.365 29.2789 237.103 29.2935 231.693V52.4005C29.2935 45.8821 31.878 39.6307 36.4784 35.0215C41.0788 30.4122 47.3182 27.8228 53.8241 27.8228H363.705C369.105 27.807 374.357 29.587 378.638 32.8838C381.912 37.1725 383.679 42.4252 383.663 47.8245Z" fill="url(#paint4_linear_27_57)"/>
<path d="M383.664 207.678V227.138C383.664 233.656 381.079 239.908 376.479 244.517C371.878 249.126 365.639 251.716 359.133 251.716H49.2774C46.0556 251.716 42.8652 251.081 39.8884 249.846C36.9116 248.611 34.2068 246.801 31.9284 244.519C29.6499 242.236 27.8426 239.527 26.6095 236.545C25.3764 233.562 24.7417 230.366 24.7417 227.138V207.678H383.664Z" fill="url(#paint5_linear_27_57)"/>
<path d="M273.394 279.724C273.397 280.517 273.25 281.303 272.962 282.04C272.497 283.257 271.675 284.302 270.604 285.04C269.532 285.777 268.263 286.17 266.963 286.168H126.391C125.092 286.168 123.823 285.774 122.753 285.037C121.682 284.3 120.859 283.255 120.392 282.04C120.104 281.303 119.957 280.517 119.96 279.724C119.959 278.878 120.125 278.039 120.448 277.257C120.771 276.475 121.245 275.765 121.842 275.166C122.439 274.568 123.149 274.093 123.929 273.77C124.71 273.446 125.546 273.28 126.391 273.28H266.963C267.808 273.28 268.644 273.447 269.424 273.771C270.205 274.095 270.913 274.569 271.511 275.168C272.108 275.766 272.582 276.476 272.905 277.258C273.228 278.04 273.394 278.878 273.394 279.724Z" fill="url(#paint6_linear_27_57)"/>
<path d="M273.394 279.724C273.397 280.517 273.25 281.303 272.962 282.04C272.497 283.257 271.675 284.302 270.604 285.04C269.532 285.777 268.263 286.17 266.963 286.168H126.391C125.092 286.168 123.823 285.774 122.753 285.037C121.682 284.3 120.859 283.255 120.392 282.04C120.104 281.303 119.957 280.517 119.96 279.724C119.959 278.878 120.125 278.039 120.448 277.257C120.771 276.475 121.245 275.765 121.842 275.166C122.439 274.568 123.149 274.093 123.929 273.77C124.71 273.446 125.546 273.28 126.391 273.28H266.963C267.808 273.28 268.644 273.447 269.424 273.771C270.204 274.095 270.913 274.569 271.511 275.168C272.108 275.766 272.582 276.476 272.905 277.258C273.228 278.04 273.394 278.878 273.394 279.724Z" fill="url(#paint7_linear_27_57)"/>
<path d="M272.962 282.04C272.497 283.257 271.675 284.302 270.604 285.04C269.532 285.777 268.263 286.17 266.963 286.168H126.391C125.092 286.168 123.823 285.774 122.752 285.037C121.682 284.3 120.859 283.255 120.392 282.04C120.711 281.197 121.206 280.432 121.844 279.796C122.441 279.197 123.149 278.722 123.93 278.398C124.71 278.074 125.546 277.907 126.391 277.908H266.963C268.263 277.908 269.532 278.303 270.603 279.041C271.674 279.779 272.496 280.825 272.962 282.04V282.04Z" fill="url(#paint8_linear_27_57)"/>
<path d="M78.8284 120.743C78.8265 127.945 81.5906 134.871 86.5478 140.087C91.5049 145.302 98.275 148.406 105.455 148.756V162.727C94.5685 162.385 84.2424 157.812 76.6626 149.975C69.0828 142.139 64.8442 131.655 64.8442 120.743C64.8442 109.83 69.0828 99.346 76.6626 91.5097C84.2424 83.6734 94.5685 79.1002 105.455 78.7582V92.7289C98.275 93.0787 91.5049 96.1831 86.5478 101.399C81.5906 106.614 78.8265 113.541 78.8284 120.743V120.743Z" fill="url(#paint9_linear_27_57)"/>
<path d="M148.749 120.743C148.755 126.899 147.408 132.981 144.803 138.556C142.198 144.132 138.4 149.064 133.677 153.002L124.682 142.333C129.114 138.65 132.305 133.688 133.82 128.121C135.334 122.555 135.099 116.657 133.146 111.229C131.193 105.802 127.618 101.11 122.906 97.7928C118.195 94.4756 112.577 92.6947 106.819 92.6928C106.366 92.6928 105.918 92.6928 105.47 92.7289V78.7582H106.819C117.935 78.7582 128.596 83.1807 136.459 91.0536C144.321 98.9264 148.742 109.605 148.749 120.743V120.743Z" fill="url(#paint10_linear_27_57)"/>
<path d="M133.677 153.002C126.147 159.315 116.638 162.768 106.819 162.753C106.366 162.753 105.918 162.753 105.47 162.727V148.756C105.918 148.756 106.366 148.787 106.819 148.787C113.343 148.795 119.664 146.511 124.682 142.333L133.677 153.002Z" fill="url(#paint11_linear_27_57)"/>
<path d="M180.328 131.582H356.45V132.608H180.328V131.582Z" fill="url(#paint12_linear_27_57)"/>
<path d="M178.403 94.6687C178.403 94.6687 211.908 89.6489 220.379 74.6051C228.849 59.5613 246.181 56.0841 260.027 84.6343C273.873 113.185 296.231 115.888 304.31 106.24C312.389 96.593 322.795 61.8726 337.043 61.0987C351.291 60.3248 356.43 88.1064 356.43 88.1064V123.219H180.328L178.403 94.6687Z" fill="url(#paint13_linear_27_57)"/>
<path d="M181.611 145.475H235.013V149.334H181.611V145.475Z" fill="url(#paint14_linear_27_57)"/>
<path d="M181.611 156.841H235.013V160.699H181.611V156.841Z" fill="url(#paint15_linear_27_57)"/>
<path d="M181.611 168.206H235.013V172.065H181.611V168.206Z" fill="url(#paint16_linear_27_57)"/>
<path d="M259.404 145.475H266.077V149.334H259.404V145.475ZM259.404 156.84H266.077V160.699H259.404V156.84ZM259.404 168.206H266.077V172.065H259.404V168.206Z" fill="url(#paint17_linear_27_57)"/>
</g>
<defs>
<linearGradient id="paint0_linear_27_57" x1="-0.00146484" y1="-0.000488281" x2="437.665" y2="26.1494" gradientUnits="userSpaceOnUse">
<stop stop-color="#7F5523"/>
<stop offset="0.520833" stop-color="#F5AC05"/>
<stop offset="0.817708" stop-color="#FEEA09"/>
</linearGradient>
<linearGradient id="paint1_linear_27_57" x1="151.601" y1="207.678" x2="245.354" y2="212.893" gradientUnits="userSpaceOnUse">
<stop stop-color="#7F5523"/>
<stop offset="0.520833" stop-color="#F5AC05"/>
<stop offset="0.817708" stop-color="#FEEA09"/>
</linearGradient>
<linearGradient id="paint2_linear_27_57" x1="196.116" y1="203.122" x2="197.165" y2="277.81" gradientUnits="userSpaceOnUse">
<stop offset="0.01"/>
<stop offset="0.97" stop-color="#3F3D56" stop-opacity="0"/>
</linearGradient>
<linearGradient id="paint3_linear_27_57" x1="24.7417" y1="23.2467" x2="397.492" y2="48.628" gradientUnits="userSpaceOnUse">
<stop stop-color="#7F5523"/>
<stop offset="0.520833" stop-color="#F5AC05"/>
<stop offset="0.817708" stop-color="#FEEA09"/>
</linearGradient>
<linearGradient id="paint4_linear_27_57" x1="210.806" y1="217.387" x2="196.158" y2="-44.793" gradientUnits="userSpaceOnUse">
<stop offset="0.03" stop-color="white" stop-opacity="0"/>
<stop offset="1" stop-color="white"/>
</linearGradient>
<linearGradient id="paint5_linear_27_57" x1="-109.622" y1="245.063" x2="123.289" y2="-47.8269" gradientUnits="userSpaceOnUse">
<stop offset="0.01" stop-color="white"/>
<stop offset="0.1" stop-color="white" stop-opacity="0.77"/>
<stop offset="0.97" stop-color="white" stop-opacity="0"/>
</linearGradient>
<linearGradient id="paint6_linear_27_57" x1="119.96" y1="273.28" x2="246.38" y2="338.518" gradientUnits="userSpaceOnUse">
<stop stop-color="#7F5523"/>
<stop offset="0.520833" stop-color="#F5AC05"/>
<stop offset="0.817708" stop-color="#FEEA09"/>
</linearGradient>
<linearGradient id="paint7_linear_27_57" x1="197.316" y1="258.278" x2="196.571" y2="282.861" gradientUnits="userSpaceOnUse">
<stop offset="0.01"/>
<stop offset="0.97" stop-color="#3F3D56" stop-opacity="0"/>
</linearGradient>
<linearGradient id="paint8_linear_27_57" x1="120.392" y1="277.908" x2="217.396" y2="355.571" gradientUnits="userSpaceOnUse">
<stop stop-color="#7F5523"/>
<stop offset="0.520833" stop-color="#F5AC05"/>
<stop offset="0.817708" stop-color="#FEEA09"/>
</linearGradient>
<linearGradient id="paint9_linear_27_57" x1="132.56" y1="120.118" x2="-2.17323" y2="123.207" gradientUnits="userSpaceOnUse">
<stop offset="0.03" stop-color="white" stop-opacity="0"/>
<stop offset="1" stop-color="white"/>
</linearGradient>
<linearGradient id="paint10_linear_27_57" x1="164.948" y1="68.2285" x2="145.099" y2="89.0846" gradientUnits="userSpaceOnUse">
<stop offset="0.03" stop-color="white" stop-opacity="0"/>
<stop offset="1" stop-color="white"/>
</linearGradient>
<linearGradient id="paint11_linear_27_57" x1="99.2757" y1="106.189" x2="131.178" y2="187.098" gradientUnits="userSpaceOnUse">
<stop offset="0.03" stop-color="white" stop-opacity="0"/>
<stop offset="1" stop-color="white"/>
</linearGradient>
<linearGradient id="paint12_linear_27_57" x1="234.616" y1="54.8716" x2="282.844" y2="164.723" gradientUnits="userSpaceOnUse">
<stop stop-color="#68E1FD"/>
<stop offset="1" stop-color="white"/>
</linearGradient>
<linearGradient id="paint13_linear_27_57" x1="178.403" y1="61.0828" x2="361.325" y2="83.7988" gradientUnits="userSpaceOnUse">
<stop stop-color="#7F5523"/>
<stop offset="0.520833" stop-color="#F5AC05"/>
<stop offset="0.817708" stop-color="#FEEA09"/>
</linearGradient>
<linearGradient id="paint14_linear_27_57" x1="207.068" y1="46.5917" x2="208.634" y2="172.983" gradientUnits="userSpaceOnUse">
<stop offset="0.03" stop-color="white" stop-opacity="0"/>
<stop offset="1" stop-color="white"/>
</linearGradient>
<linearGradient id="paint15_linear_27_57" x1="207.985" y1="132.325" x2="209.556" y2="258.716" gradientUnits="userSpaceOnUse">
<stop offset="0.03" stop-color="white" stop-opacity="0"/>
<stop offset="0.45" stop-color="white" stop-opacity="0.45"/>
<stop offset="1" stop-color="white"/>
</linearGradient>
<linearGradient id="paint16_linear_27_57" x1="207.846" y1="132.325" x2="209.417" y2="258.716" gradientUnits="userSpaceOnUse">
<stop offset="0.03" stop-color="white" stop-opacity="0"/>
<stop offset="1" stop-color="white"/>
</linearGradient>
<linearGradient id="paint17_linear_27_57" x1="259.404" y1="145.475" x2="266.366" y2="145.551" gradientUnits="userSpaceOnUse">
<stop stop-color="#7F5523"/>
<stop offset="0.520833" stop-color="#F5AC05"/>
<stop offset="0.817708" stop-color="#FEEA09"/>
</linearGradient>
<clipPath id="clip0_27_57">
<rect width="421" height="307" fill="white"/>
</clipPath>
</defs>
</svg>
