<svg width="421" height="396" viewBox="0 0 421 396" fill="none" xmlns="http://www.w3.org/2000/svg">
<g clip-path="url(#clip0_27_13)">
<path opacity="0.18" d="M246.703 390.614C250.977 392.377 255.701 392.635 260.312 392.854C299.232 394.731 338.178 395.63 377.151 395.55C381.047 395.55 385.029 395.511 388.68 394.159C392.33 392.807 395.637 389.839 396.279 385.996C371.877 384.101 347.302 384.287 322.985 383.386C310.237 382.915 296.999 384.512 284.317 385.724C277.891 386.343 271.475 387.067 265.07 387.898C261.041 388.428 250.288 392.092 246.703 390.614V390.614Z" fill="#1D2741"/>
<path d="M322.919 378.628L325.921 386.003L313.795 391.741L302.598 392.556C302.598 392.556 300.683 385.181 305.911 384.525C308.967 384.176 311.882 383.049 314.379 381.252L322.919 378.628ZM332.546 381.961C331.027 382.589 329.705 383.616 328.723 384.934C327.741 386.253 327.134 387.813 326.967 389.448L326.643 392.556H340.411V381.955L332.546 381.961Z" fill="url(#paint0_linear_27_13)"/>
<path opacity="0.22" d="M420.006 44.0347V228.151C420.007 230.83 419.48 233.484 418.455 235.959C417.43 238.435 415.927 240.684 414.033 242.578C412.138 244.473 409.889 245.976 407.413 247.001C404.938 248.025 402.285 248.553 399.605 248.552H20.4007C14.9901 248.552 9.80109 246.402 5.97522 242.576C2.14935 238.751 0 233.562 0 228.151V44.0347C0.00701258 38.6263 2.15862 33.4413 5.98297 29.617C9.80732 25.7926 14.9922 23.641 20.4007 23.634H399.619C405.025 23.6445 410.206 25.7977 414.028 29.6217C417.849 33.4456 419.999 38.6286 420.006 44.0347V44.0347Z" fill="url(#paint1_linear_27_13)"/>
<path d="M421 43.3522V227.462C421.001 232.13 419.401 236.658 416.468 240.29C413.534 243.922 409.444 246.438 404.88 247.419C403.474 247.715 402.042 247.864 400.606 247.863H21.3879C18.708 247.864 16.0541 247.338 13.5778 246.313C11.1015 245.289 8.85147 243.786 6.95621 241.892C5.06096 239.997 3.5577 237.747 2.53236 235.271C1.50702 232.796 0.979721 230.142 0.980592 227.462V43.3522C0.985854 37.9415 3.13759 32.7539 6.96356 28.9279C10.7895 25.1019 15.9772 22.9502 21.3879 22.9449H400.606C405.561 22.9458 410.346 24.7506 414.067 28.022C417.789 31.2935 420.192 35.8079 420.828 40.7218C420.946 41.5936 421.003 42.4725 421 43.3522V43.3522Z" fill="url(#paint2_linear_27_13)"/>
<path d="M421 43.3522V227.462C421.001 232.13 419.401 236.658 416.468 240.29C413.534 243.922 409.444 246.438 404.879 247.419C403.474 247.715 402.042 247.864 400.606 247.863H21.3879C18.708 247.864 16.0541 247.338 13.5778 246.313C11.1015 245.289 8.85146 243.786 6.95621 241.892C5.06096 239.997 3.55769 237.747 2.53236 235.271C1.50702 232.796 0.979721 230.142 0.980592 227.462V43.3522C0.985854 37.9415 3.13759 32.7539 6.96357 28.9279C10.7895 25.1019 15.9772 22.9502 21.3879 22.9449H400.606C405.561 22.9458 410.346 24.7506 414.067 28.022C417.789 31.2935 420.192 35.8079 420.828 40.7218C420.945 41.5936 421.003 42.4725 421 43.3522V43.3522Z" fill="url(#paint3_linear_27_13)"/>
<path d="M419.847 41.4109H0.172241C0.809604 36.4964 3.21405 31.9819 6.93653 28.7106C10.659 25.4392 15.445 23.6347 20.4006 23.634H399.619C404.575 23.6333 409.361 25.4373 413.084 28.7089C416.807 31.9805 419.211 36.4958 419.847 41.4109V41.4109Z" fill="url(#paint4_linear_27_13)"/>
<path d="M274.107 184.865H132.144C129.246 184.865 126.896 187.214 126.896 190.113V198.746C126.896 201.644 129.246 203.994 132.144 203.994H274.107C277.005 203.994 279.355 201.644 279.355 198.746V190.113C279.355 187.214 277.005 184.865 274.107 184.865Z" fill="white" stroke="url(#paint5_linear_27_13)" stroke-width="0.88" stroke-miterlimit="10"/>
<path d="M139.326 198.852C141.628 198.852 143.494 196.986 143.494 194.684C143.494 192.383 141.628 190.517 139.326 190.517C137.025 190.517 135.159 192.383 135.159 194.684C135.159 196.986 137.025 198.852 139.326 198.852Z" fill="url(#paint6_linear_27_13)"/>
<path d="M152.293 198.852C154.595 198.852 156.46 196.986 156.46 194.684C156.46 192.383 154.595 190.517 152.293 190.517C149.991 190.517 148.125 192.383 148.125 194.684C148.125 196.986 149.991 198.852 152.293 198.852Z" fill="url(#paint7_linear_27_13)"/>
<path d="M165.266 198.852C167.568 198.852 169.434 196.986 169.434 194.684C169.434 192.383 167.568 190.517 165.266 190.517C162.964 190.517 161.098 192.383 161.098 194.684C161.098 196.986 162.964 198.852 165.266 198.852Z" fill="url(#paint8_linear_27_13)"/>
<path d="M178.233 198.852C180.534 198.852 182.4 196.986 182.4 194.684C182.4 192.383 180.534 190.517 178.233 190.517C175.931 190.517 174.065 192.383 174.065 194.684C174.065 196.986 175.931 198.852 178.233 198.852Z" fill="url(#paint9_linear_27_13)"/>
<path d="M289.645 193.545V191.345H291.381V189.927H289.645V188.867H291.381V187.449H287.902V193.545C286.845 193.761 285.906 194.361 285.267 195.23C284.628 196.099 284.334 197.174 284.442 198.248C284.551 199.321 285.054 200.316 285.854 201.039C286.654 201.762 287.695 202.163 288.773 202.163C289.852 202.163 290.892 201.762 291.692 201.039C292.493 200.316 292.996 199.321 293.104 198.248C293.213 197.174 292.919 196.099 292.28 195.23C291.641 194.361 290.701 193.761 289.645 193.545V193.545ZM288.777 200.833C288.177 200.834 287.591 200.658 287.093 200.326C286.594 199.994 286.205 199.522 285.974 198.968C285.744 198.415 285.683 197.806 285.799 197.218C285.915 196.631 286.203 196.09 286.627 195.666C287.05 195.242 287.589 194.953 288.177 194.836C288.764 194.718 289.374 194.778 289.927 195.007C290.481 195.236 290.954 195.624 291.287 196.122C291.62 196.62 291.798 197.206 291.798 197.805C291.798 198.608 291.48 199.377 290.914 199.946C290.348 200.515 289.579 200.836 288.777 200.84V200.833Z" fill="url(#paint10_linear_27_13)"/>
<path d="M229.012 83.3718H185.534C181.231 83.3718 177.742 86.8604 177.742 91.1637V134.642C177.742 138.945 181.231 142.434 185.534 142.434H229.012C233.316 142.434 236.804 138.945 236.804 134.642V91.1637C236.804 86.8604 233.316 83.3718 229.012 83.3718Z" fill="url(#paint11_linear_27_13)"/>
<path d="M229.251 83.3718H188.907C184.739 83.3718 181.36 86.7506 181.36 90.9186V134.887C181.36 139.055 184.739 142.434 188.907 142.434H229.251C233.419 142.434 236.798 139.055 236.798 134.887V90.9186C236.798 86.7506 233.419 83.3718 229.251 83.3718Z" fill="url(#paint12_linear_27_13)"/>
<path d="M239.083 113.095L236.036 115.99L234.71 117.236C233.666 115.989 232.341 115.008 230.843 114.374C229.346 113.739 227.719 113.469 226.097 113.585C225.388 113.671 224.669 113.554 224.023 113.247C221.83 112.002 225.269 107.754 225.269 107.754C226.025 107.738 226.782 107.771 227.535 107.854C227.601 107.847 227.667 107.847 227.734 107.854L228.337 107.927C231.212 108.338 235.896 109.709 239.083 113.095V113.095Z" fill="white"/>
<path opacity="0.39" d="M235.916 115.719L236.036 115.99L234.711 117.236C233.666 115.989 232.341 115.008 230.843 114.374C229.346 113.739 227.719 113.469 226.097 113.585C225.388 113.671 224.669 113.554 224.023 113.247L225.269 107.755C225.269 107.755 226.495 107.755 227.535 107.854C227.601 107.847 227.668 107.847 227.734 107.854C227.936 107.866 228.137 107.89 228.337 107.927C228.337 107.927 229.059 111.014 228.522 112.313C228.522 112.333 233.604 113.181 235.916 115.719V115.719Z" fill="url(#paint13_linear_27_13)"/>
<path d="M208.3 95.8215H206.246C204.596 95.8215 203.258 97.1594 203.258 98.8098V126.996C203.258 128.646 204.596 129.984 206.246 129.984H208.3C209.951 129.984 211.288 128.646 211.288 126.996V98.8098C211.288 97.1594 209.951 95.8215 208.3 95.8215Z" fill="url(#paint14_linear_27_13)"/>
<path d="M226.084 112.439C226.051 116.015 224.607 119.434 222.068 121.953C219.528 124.471 216.097 125.886 212.521 125.889H209.599C209.158 125.889 208.726 125.764 208.352 125.53C207.978 125.296 207.678 124.961 207.485 124.564C207.307 124.205 207.223 123.806 207.242 123.405C207.261 123.005 207.382 122.616 207.594 122.275C207.806 121.934 208.101 121.654 208.452 121.459C208.803 121.265 209.198 121.164 209.599 121.165H210.686C211.863 121.165 213.03 120.93 214.116 120.474C215.201 120.017 216.185 119.349 217.009 118.507C217.833 117.665 218.481 116.667 218.914 115.572C219.347 114.476 219.556 113.305 219.531 112.127C219.452 109.793 218.464 107.581 216.778 105.964C215.093 104.346 212.843 103.451 210.507 103.468H209.181C208.668 103.468 208.176 103.264 207.813 102.901C207.451 102.538 207.247 102.046 207.247 101.533V100.711C207.247 100.198 207.451 99.7061 207.813 99.3433C208.176 98.9804 208.668 98.7766 209.181 98.7766H212.289C219.796 98.77 226.137 104.919 226.084 112.439V112.439Z" fill="white"/>
<path opacity="0.39" d="M222.466 112.982C222.44 116.092 221.187 119.066 218.98 121.258C216.772 123.449 213.789 124.68 210.679 124.683H208.135C207.91 124.683 207.686 124.648 207.472 124.577C207.294 124.218 207.21 123.819 207.229 123.419C207.248 123.018 207.369 122.629 207.581 122.288C207.793 121.948 208.088 121.667 208.439 121.473C208.79 121.278 209.185 121.177 209.586 121.178H210.672C211.85 121.179 213.016 120.944 214.102 120.487C215.188 120.031 216.172 119.362 216.996 118.52C217.82 117.678 218.467 116.68 218.9 115.585C219.333 114.489 219.543 113.318 219.518 112.141C219.438 109.806 218.451 107.595 216.765 105.977C215.08 104.36 212.829 103.464 210.493 103.481H209.168C208.655 103.481 208.163 103.277 207.8 102.914C207.437 102.551 207.233 102.059 207.233 101.546V101.182C207.405 101.126 207.583 101.097 207.764 101.096H210.46C213.626 101.089 216.666 102.335 218.915 104.562C221.165 106.789 222.442 109.817 222.466 112.982V112.982Z" fill="url(#paint15_linear_27_13)"/>
<path d="M219.107 109.636C219.107 109.636 219.995 112.015 218.888 115.646C218.888 115.646 214.694 119.959 218.272 126.817L221.227 129.977L217.788 133.363C215.651 131.708 213.992 129.513 212.983 127.005C211.973 124.497 211.649 121.766 212.044 119.091C212.806 113.247 219.107 109.636 219.107 109.636Z" fill="white"/>
<path d="M214.853 136.093L242.085 110.252L264.931 129.977L236.798 156.964L214.853 136.093V136.093ZM214.853 136.093L216.662 146.336L236.798 165.657V156.964L214.853 136.093Z" fill="url(#paint16_linear_27_13)"/>
<path d="M264.931 129.977V139.379L236.798 165.657V156.964L264.931 129.977V129.977Z" fill="url(#paint17_linear_27_13)"/>
<path d="M214.853 136.093L216.662 146.336L236.798 165.657V156.964L214.853 136.093Z" fill="url(#paint18_linear_27_13)"/>
<path d="M264.931 129.977V139.379L236.798 165.657V156.964L264.931 129.977V129.977Z" fill="url(#paint19_linear_27_13)"/>
<path d="M219.875 140.87L247.366 114.811L249.903 117.004L222.466 143.335L219.875 140.87V140.87Z" fill="url(#paint20_linear_27_13)"/>
<path d="M227.992 148.417L256.138 122.358L258.676 124.544L230.583 150.875L227.992 148.417V148.417Z" fill="url(#paint21_linear_27_13)"/>
<path opacity="0.21" d="M306.507 174.072C306.23 178.165 306.453 182.277 307.17 186.316C307.62 188.814 308.223 191.564 306.938 193.763C306.275 194.956 305.083 195.791 304.016 196.672C297.244 202.238 293.329 210.5 287.544 217.086C287.161 217.628 286.605 218.023 285.967 218.206C285.311 218.248 284.661 218.064 284.125 217.682C280.603 215.65 277.643 212.771 275.512 209.307C274.472 207.611 273.524 205.676 271.735 204.808C268.422 203.179 264.407 206.644 264.043 210.334C263.678 214.025 265.659 217.497 267.574 220.671L276.433 235.366C279.13 239.845 281.972 244.477 286.371 247.293C289.416 249.149 292.836 250.303 296.383 250.672C301.405 251.334 306.5 251.003 311.556 250.612C320.801 249.897 330.022 248.978 339.218 247.856C342.372 247.472 345.957 246.783 347.554 244.046C348.627 242.204 348.481 239.932 348.296 237.811C347.646 230.13 346.984 222.451 346.308 214.774C345.944 210.42 345.4 205.69 342.333 202.589C340.497 200.747 337.926 199.7 336.296 197.666C335.131 196.035 334.381 194.146 334.11 192.16C332.54 183.878 334.044 174.979 330.797 167.181C330.135 165.604 329.247 164.04 327.782 163.159C326.438 162.462 324.925 162.157 323.416 162.278C316.161 162.483 307.037 165.942 306.507 174.072V174.072Z" fill="url(#paint22_linear_27_13)"/>
<path opacity="0.18" d="M405.078 291.016C401.149 336.29 276.592 321.786 187.018 303.433C97.4449 285.079 23.5413 321.786 6.49985 291.016C-1.04688 277.394 3.99531 260.379 11.9661 245.643C15.0041 247.336 18.4267 248.219 21.9047 248.207H397.744C402.918 260.392 406.476 274.969 405.078 291.016Z" fill="url(#paint23_linear_27_13)"/>
<path d="M307.229 272.206L299.073 331.612C298.731 334.113 298.992 336.66 299.835 339.039L314.412 381.961L322.932 379.311L316.505 336.608C316.368 335.722 316.427 334.818 316.678 333.958L327.736 295.767L332.546 381.901H340.411L347.176 296.9C349.468 282.694 345.268 272.206 345.268 272.206H307.229Z" fill="#3F3D56"/>
<path d="M349.031 256.476L340.961 204.49L339.834 198.156C339.834 198.156 354.901 206.77 359.221 221.837C364.873 241.615 349.031 256.476 349.031 256.476V256.476Z" fill="url(#paint24_linear_27_13)"/>
<path d="M349.031 256.476L340.961 204.49L339.834 198.156C339.834 198.156 354.901 206.77 359.221 221.837C364.873 241.615 349.031 256.476 349.031 256.476V256.476Z" fill="url(#paint25_linear_27_13)"/>
<path d="M357.313 244.377C363.429 232.285 351.35 211.249 351.35 211.249L340.948 204.497L342.12 196.99C342.12 196.99 358.897 198.706 360.533 222.393C361.077 230.019 360.507 239.441 357.313 244.377V244.377Z" fill="url(#paint26_linear_27_13)"/>
<path d="M270.88 203.788C270.317 201.88 269.337 199.607 267.349 199.435C267.888 201.175 267.808 203.048 267.124 204.736C262.79 203.132 261.783 196.785 257.457 195.141C256.794 195.844 257.165 196.99 257.576 197.865C258.331 199.495 259.091 201.125 259.855 202.754C258.839 201.155 257.759 199.609 256.615 198.116C256.277 197.659 255.694 197.162 255.217 197.454C254.74 197.745 254.912 198.362 255.085 198.839C255.84 200.959 256.701 203.046 257.649 205.087C256.585 203.301 255.368 201.612 254.011 200.038C253.123 200.257 253.309 201.568 253.693 202.397L256.536 208.453L254.256 205.14C253.521 205.213 253.633 206.339 253.991 206.988C257.048 212.446 261.823 216.739 267.574 219.2C268.74 219.696 270.092 220.107 271.238 219.571C276.168 217.324 271.834 207.061 270.88 203.788V203.788Z" fill="url(#paint27_linear_27_13)"/>
<path d="M349.031 219.869V260.63C349.031 265.626 348.216 269.688 343.214 269.688H308.283C303.3 269.688 303.108 265.666 303.075 260.69L302.816 232.988C302.816 232.988 295.276 246.418 289.26 245.113C283.244 243.808 265.407 219.219 265.407 219.219L274.286 211.759L289.247 226.76C289.247 226.76 291.652 221.293 295.15 209.056C298.649 196.818 310.019 196.785 310.019 196.785H340.391C351.357 196.785 349.031 219.869 349.031 219.869V219.869Z" fill="url(#paint28_linear_27_13)"/>
<path d="M349.031 224.46C349.031 224.46 354.279 231.835 349.031 239.209V224.46Z" fill="#3F3D56"/>
<path d="M307.229 269.429H345.268V272.206H307.229V269.429Z" fill="url(#paint29_linear_27_13)"/>
<path d="M320.183 169.063H331.161V196.977H320.183V169.063Z" fill="url(#paint30_linear_27_13)"/>
<path d="M331.168 166.001V196.983H325.377V195.095C325.377 194.546 325.269 194.001 325.058 193.494C324.848 192.986 324.539 192.525 324.15 192.136C323.761 191.748 323.3 191.44 322.792 191.231C322.284 191.021 321.739 190.913 321.19 190.914H320.858C318.1 190.914 315.454 189.818 313.503 187.867C311.552 185.917 310.456 183.271 310.456 180.512V166.001H331.168Z" fill="url(#paint31_linear_27_13)"/>
<path d="M310.456 169.063C310.456 169.063 300.849 163.822 304.287 158.084C307.726 152.346 313.331 155.957 313.331 155.957H331.85C331.85 155.957 333.977 155.626 334.799 159.23C335.62 162.834 331.194 185.209 331.194 185.209H321.991L320.812 179.392C320.812 179.392 322.647 177.404 322.482 175.291C322.497 174.895 322.376 174.506 322.138 174.19C321.9 173.873 321.561 173.648 321.176 173.552C320.792 173.457 320.387 173.496 320.028 173.664C319.67 173.833 319.38 174.119 319.209 174.476C318.38 175.947 318.712 169.718 315.763 169.063C314.016 168.666 312.203 168.666 310.456 169.063V169.063Z" fill="#3F3D56"/>
<path d="M328.71 196.924C328.71 196.924 324.45 202.503 318.546 202.503C312.643 202.503 295.442 219.378 294.289 224.46C293.136 229.542 289.26 226.76 289.26 226.76C289.26 226.76 291.665 221.293 295.164 209.056C298.662 196.818 310.019 196.785 310.019 196.785H325.457L328.71 196.924Z" fill="url(#paint32_linear_27_13)"/>
<path d="M322.919 378.628L325.921 386.003L313.795 391.741L302.598 392.556C302.598 392.556 300.683 385.181 305.911 384.525C308.967 384.176 311.882 383.049 314.379 381.252L322.919 378.628Z" fill="url(#paint33_linear_27_13)"/>
<path d="M332.546 381.961C331.027 382.588 329.705 383.616 328.723 384.934C327.741 386.253 327.134 387.813 326.967 389.448L326.643 392.556H340.411V381.954L332.546 381.961Z" fill="url(#paint34_linear_27_13)"/>
<path opacity="0.18" d="M79.5951 23.9786C79.5951 23.9786 164.643 -29.9749 273.557 23.9786H79.5951Z" fill="url(#paint35_linear_27_13)"/>
</g>
<defs>
<linearGradient id="paint0_linear_27_13" x1="302.256" y1="378.628" x2="341.511" y2="383.29" gradientUnits="userSpaceOnUse">
<stop stop-color="#7F5523"/>
<stop offset="0.520833" stop-color="#F5AC05"/>
<stop offset="0.817708" stop-color="#FEEA09"/>
</linearGradient>
<linearGradient id="paint1_linear_27_13" x1="0" y1="136.093" x2="420.019" y2="136.093" gradientUnits="userSpaceOnUse">
<stop stop-color="#68E1FD"/>
<stop offset="1" stop-color="#69B9EB"/>
</linearGradient>
<linearGradient id="paint2_linear_27_13" x1="0.980591" y1="22.9449" x2="436.353" y2="58.1845" gradientUnits="userSpaceOnUse">
<stop stop-color="#7F5523"/>
<stop offset="0.520833" stop-color="#F5AC05"/>
<stop offset="0.817708" stop-color="#FEEA09"/>
</linearGradient>
<linearGradient id="paint3_linear_27_13" x1="-59.8901" y1="80.1185" x2="579.229" y2="210.566" gradientUnits="userSpaceOnUse">
<stop stop-color="white" stop-opacity="0"/>
<stop offset="1" stop-color="white"/>
</linearGradient>
<linearGradient id="paint4_linear_27_13" x1="-35.8718" y1="37.7005" x2="714.719" y2="22.5209" gradientUnits="userSpaceOnUse">
<stop offset="0.02" stop-opacity="0"/>
<stop offset="0.99" stop-color="#3F3D56"/>
</linearGradient>
<linearGradient id="paint5_linear_27_13" x1="126.896" y1="184.865" x2="269.004" y2="233.957" gradientUnits="userSpaceOnUse">
<stop stop-color="#7F5523"/>
<stop offset="0.520833" stop-color="#F5AC05"/>
<stop offset="0.817708" stop-color="#FEEA09"/>
</linearGradient>
<linearGradient id="paint6_linear_27_13" x1="135.159" y1="190.517" x2="143.839" y2="190.893" gradientUnits="userSpaceOnUse">
<stop stop-color="#7F5523"/>
<stop offset="0.520833" stop-color="#F5AC05"/>
<stop offset="0.817708" stop-color="#FEEA09"/>
</linearGradient>
<linearGradient id="paint7_linear_27_13" x1="148.125" y1="190.517" x2="156.805" y2="190.893" gradientUnits="userSpaceOnUse">
<stop stop-color="#7F5523"/>
<stop offset="0.520833" stop-color="#F5AC05"/>
<stop offset="0.817708" stop-color="#FEEA09"/>
</linearGradient>
<linearGradient id="paint8_linear_27_13" x1="161.098" y1="190.517" x2="169.779" y2="190.893" gradientUnits="userSpaceOnUse">
<stop stop-color="#7F5523"/>
<stop offset="0.520833" stop-color="#F5AC05"/>
<stop offset="0.817708" stop-color="#FEEA09"/>
</linearGradient>
<linearGradient id="paint9_linear_27_13" x1="174.065" y1="190.517" x2="182.745" y2="190.893" gradientUnits="userSpaceOnUse">
<stop stop-color="#7F5523"/>
<stop offset="0.520833" stop-color="#F5AC05"/>
<stop offset="0.817708" stop-color="#FEEA09"/>
</linearGradient>
<linearGradient id="paint10_linear_27_13" x1="284.42" y1="187.449" x2="293.498" y2="187.682" gradientUnits="userSpaceOnUse">
<stop stop-color="#7F5523"/>
<stop offset="0.520833" stop-color="#F5AC05"/>
<stop offset="0.817708" stop-color="#FEEA09"/>
</linearGradient>
<linearGradient id="paint11_linear_27_13" x1="207.982" y1="112.631" x2="77.6935" y2="161.794" gradientUnits="userSpaceOnUse">
<stop stop-color="#68E1FD"/>
<stop offset="0.01" stop-color="#67DDF9"/>
<stop offset="0.12" stop-color="#5CB3CE"/>
<stop offset="0.24" stop-color="#538EA9"/>
<stop offset="0.37" stop-color="#4C718B"/>
<stop offset="0.5" stop-color="#465A73"/>
<stop offset="0.63" stop-color="#424A63"/>
<stop offset="0.79" stop-color="#404059"/>
<stop offset="0.99" stop-color="#3F3D56"/>
</linearGradient>
<linearGradient id="paint12_linear_27_13" x1="181.36" y1="83.3718" x2="239.105" y2="85.7211" gradientUnits="userSpaceOnUse">
<stop stop-color="#7F5523"/>
<stop offset="0.520833" stop-color="#F5AC05"/>
<stop offset="0.817708" stop-color="#FEEA09"/>
</linearGradient>
<linearGradient id="paint13_linear_27_13" x1="224.01" y1="112.499" x2="236.036" y2="112.499" gradientUnits="userSpaceOnUse">
<stop stop-color="#68E1FD"/>
<stop offset="1" stop-color="#69B9EB"/>
</linearGradient>
<linearGradient id="paint14_linear_27_13" x1="198.733" y1="112.87" x2="266.693" y2="113.088" gradientUnits="userSpaceOnUse">
<stop stop-opacity="0"/>
<stop offset="0.02" stop-color="#030304" stop-opacity="0.04"/>
<stop offset="0.18" stop-color="#181821" stop-opacity="0.39"/>
<stop offset="0.35" stop-color="#292839" stop-opacity="0.66"/>
<stop offset="0.53" stop-color="#363449" stop-opacity="0.85"/>
<stop offset="0.73" stop-color="#3D3B53" stop-opacity="0.96"/>
<stop offset="0.99" stop-color="#3F3D56"/>
</linearGradient>
<linearGradient id="paint15_linear_27_13" x1="233.253" y1="112.101" x2="212.567" y2="112.783" gradientUnits="userSpaceOnUse">
<stop stop-color="#68E1FD"/>
<stop offset="1" stop-color="#69B9EB"/>
</linearGradient>
<linearGradient id="paint16_linear_27_13" x1="214.853" y1="110.252" x2="267.021" y2="112.296" gradientUnits="userSpaceOnUse">
<stop stop-color="#7F5523"/>
<stop offset="0.520833" stop-color="#F5AC05"/>
<stop offset="0.817708" stop-color="#FEEA09"/>
</linearGradient>
<linearGradient id="paint17_linear_27_13" x1="236.798" y1="129.977" x2="266.116" y2="130.979" gradientUnits="userSpaceOnUse">
<stop stop-color="#7F5523"/>
<stop offset="0.520833" stop-color="#F5AC05"/>
<stop offset="0.817708" stop-color="#FEEA09"/>
</linearGradient>
<linearGradient id="paint18_linear_27_13" x1="220.624" y1="164.789" x2="242.84" y2="105.356" gradientUnits="userSpaceOnUse">
<stop stop-opacity="0"/>
<stop offset="0.02" stop-color="#030304" stop-opacity="0.04"/>
<stop offset="0.18" stop-color="#181821" stop-opacity="0.39"/>
<stop offset="0.35" stop-color="#292839" stop-opacity="0.66"/>
<stop offset="0.53" stop-color="#363449" stop-opacity="0.85"/>
<stop offset="0.73" stop-color="#3D3B53" stop-opacity="0.96"/>
<stop offset="0.99" stop-color="#3F3D56"/>
</linearGradient>
<linearGradient id="paint19_linear_27_13" x1="254.177" y1="159.356" x2="237.308" y2="100.539" gradientUnits="userSpaceOnUse">
<stop stop-opacity="0"/>
<stop offset="0.02" stop-color="#030304" stop-opacity="0.04"/>
<stop offset="0.18" stop-color="#181821" stop-opacity="0.39"/>
<stop offset="0.35" stop-color="#292839" stop-opacity="0.66"/>
<stop offset="0.53" stop-color="#363449" stop-opacity="0.85"/>
<stop offset="0.73" stop-color="#3D3B53" stop-opacity="0.96"/>
<stop offset="0.99" stop-color="#3F3D56"/>
</linearGradient>
<linearGradient id="paint20_linear_27_13" x1="246.233" y1="112.79" x2="161.993" y2="232.756" gradientUnits="userSpaceOnUse">
<stop stop-opacity="0"/>
<stop offset="0.02" stop-color="#030304" stop-opacity="0.04"/>
<stop offset="0.18" stop-color="#181821" stop-opacity="0.39"/>
<stop offset="0.35" stop-color="#292839" stop-opacity="0.66"/>
<stop offset="0.53" stop-color="#363449" stop-opacity="0.85"/>
<stop offset="0.73" stop-color="#3D3B53" stop-opacity="0.96"/>
<stop offset="0.99" stop-color="#3F3D56"/>
</linearGradient>
<linearGradient id="paint21_linear_27_13" x1="255.436" y1="119.25" x2="171.196" y2="239.223" gradientUnits="userSpaceOnUse">
<stop stop-opacity="0"/>
<stop offset="0.02" stop-color="#030304" stop-opacity="0.04"/>
<stop offset="0.18" stop-color="#181821" stop-opacity="0.39"/>
<stop offset="0.35" stop-color="#292839" stop-opacity="0.66"/>
<stop offset="0.53" stop-color="#363449" stop-opacity="0.85"/>
<stop offset="0.73" stop-color="#3D3B53" stop-opacity="0.96"/>
<stop offset="0.99" stop-color="#3F3D56"/>
</linearGradient>
<linearGradient id="paint22_linear_27_13" x1="281.7" y1="181.479" x2="447.775" y2="337.84" gradientUnits="userSpaceOnUse">
<stop stop-opacity="0"/>
<stop offset="0.02" stop-color="#030304" stop-opacity="0.04"/>
<stop offset="0.18" stop-color="#181821" stop-opacity="0.39"/>
<stop offset="0.35" stop-color="#292839" stop-opacity="0.66"/>
<stop offset="0.53" stop-color="#363449" stop-opacity="0.85"/>
<stop offset="0.73" stop-color="#3D3B53" stop-opacity="0.96"/>
<stop offset="0.99" stop-color="#3F3D56"/>
</linearGradient>
<linearGradient id="paint23_linear_27_13" x1="2.78748" y1="245.643" x2="401.506" y2="337.86" gradientUnits="userSpaceOnUse">
<stop stop-color="#7F5523"/>
<stop offset="0.520833" stop-color="#F5AC05"/>
<stop offset="0.817708" stop-color="#FEEA09"/>
</linearGradient>
<linearGradient id="paint24_linear_27_13" x1="339.834" y1="198.156" x2="361.328" y2="198.485" gradientUnits="userSpaceOnUse">
<stop stop-color="#7F5523"/>
<stop offset="0.520833" stop-color="#F5AC05"/>
<stop offset="0.817708" stop-color="#FEEA09"/>
</linearGradient>
<linearGradient id="paint25_linear_27_13" x1="363.263" y1="221.751" x2="221.651" y2="263.566" gradientUnits="userSpaceOnUse">
<stop stop-opacity="0"/>
<stop offset="0.02" stop-color="#030304" stop-opacity="0.04"/>
<stop offset="0.18" stop-color="#181821" stop-opacity="0.39"/>
<stop offset="0.35" stop-color="#292839" stop-opacity="0.66"/>
<stop offset="0.53" stop-color="#363449" stop-opacity="0.85"/>
<stop offset="0.73" stop-color="#3D3B53" stop-opacity="0.96"/>
<stop offset="0.99" stop-color="#3F3D56"/>
</linearGradient>
<linearGradient id="paint26_linear_27_13" x1="340.948" y1="196.99" x2="361.565" y2="197.363" gradientUnits="userSpaceOnUse">
<stop stop-color="#7F5523"/>
<stop offset="0.520833" stop-color="#F5AC05"/>
<stop offset="0.817708" stop-color="#FEEA09"/>
</linearGradient>
<linearGradient id="paint27_linear_27_13" x1="253.375" y1="207.499" x2="273.557" y2="207.499" gradientUnits="userSpaceOnUse">
<stop stop-color="#ECC4D7"/>
<stop offset="0.42" stop-color="#EFD4D1"/>
<stop offset="1" stop-color="#F2EAC9"/>
</linearGradient>
<linearGradient id="paint28_linear_27_13" x1="265.407" y1="196.785" x2="352.654" y2="201.133" gradientUnits="userSpaceOnUse">
<stop stop-color="#7F5523"/>
<stop offset="0.520833" stop-color="#F5AC05"/>
<stop offset="0.817708" stop-color="#FEEA09"/>
</linearGradient>
<linearGradient id="paint29_linear_27_13" x1="307.229" y1="270.821" x2="345.268" y2="270.821" gradientUnits="userSpaceOnUse">
<stop stop-color="#68E1FD"/>
<stop offset="1" stop-color="#69B9EB"/>
</linearGradient>
<linearGradient id="paint30_linear_27_13" x1="322.283" y1="183.083" x2="340.312" y2="182.758" gradientUnits="userSpaceOnUse">
<stop stop-color="#ECC4D7"/>
<stop offset="0.42" stop-color="#EFD4D1"/>
<stop offset="1" stop-color="#F2EAC9"/>
</linearGradient>
<linearGradient id="paint31_linear_27_13" x1="323.337" y1="180.161" x2="319.619" y2="182.122" gradientUnits="userSpaceOnUse">
<stop stop-color="#ECC4D7"/>
<stop offset="0.42" stop-color="#EFD4D1"/>
<stop offset="1" stop-color="#F2EAC9"/>
</linearGradient>
<linearGradient id="paint32_linear_27_13" x1="331.718" y1="220.803" x2="284.841" y2="202.45" gradientUnits="userSpaceOnUse">
<stop stop-color="white" stop-opacity="0"/>
<stop offset="1" stop-color="white"/>
</linearGradient>
<linearGradient id="paint33_linear_27_13" x1="302.253" y1="385.592" x2="325.921" y2="385.592" gradientUnits="userSpaceOnUse">
<stop stop-opacity="0"/>
<stop offset="0.02" stop-color="#030304" stop-opacity="0.04"/>
<stop offset="0.18" stop-color="#181821" stop-opacity="0.39"/>
<stop offset="0.35" stop-color="#292839" stop-opacity="0.66"/>
<stop offset="0.53" stop-color="#363449" stop-opacity="0.85"/>
<stop offset="0.73" stop-color="#3D3B53" stop-opacity="0.96"/>
<stop offset="0.99" stop-color="#3F3D56"/>
</linearGradient>
<linearGradient id="paint34_linear_27_13" x1="326.63" y1="387.262" x2="340.398" y2="387.262" gradientUnits="userSpaceOnUse">
<stop stop-opacity="0"/>
<stop offset="0.02" stop-color="#030304" stop-opacity="0.04"/>
<stop offset="0.18" stop-color="#181821" stop-opacity="0.39"/>
<stop offset="0.35" stop-color="#292839" stop-opacity="0.66"/>
<stop offset="0.53" stop-color="#363449" stop-opacity="0.85"/>
<stop offset="0.73" stop-color="#3D3B53" stop-opacity="0.96"/>
<stop offset="0.99" stop-color="#3F3D56"/>
</linearGradient>
<linearGradient id="paint35_linear_27_13" x1="79.5951" y1="-0.000732422" x2="259.813" y2="63.1823" gradientUnits="userSpaceOnUse">
<stop stop-color="#7F5523"/>
<stop offset="0.520833" stop-color="#F5AC05"/>
<stop offset="0.817708" stop-color="#FEEA09"/>
</linearGradient>
<clipPath id="clip0_27_13">
<rect width="421" height="395.557" fill="white"/>
</clipPath>
</defs>
</svg>
