<svg width="421" height="291" viewBox="0 0 421 291" fill="none" xmlns="http://www.w3.org/2000/svg">
<g clip-path="url(#clip0_27_95)">
<path opacity="0.18" d="M2.7487 245.355C1.6962 246.229 0.59772 247.174 0.194091 248.477C-0.490545 250.607 0.894055 252.83 2.42171 254.465C10.3359 262.941 22.8331 264.923 34.3646 266.17C86.4327 271.79 138.93 272.228 191.085 267.478C190.658 267.798 190.259 268.156 189.894 268.546C182.925 275.883 187.851 288.084 197.967 288.86C262.67 293.842 327.905 287.787 392.628 281.707C397.814 281.196 401.963 271.938 406.285 269.031C410.608 266.124 413.275 260.065 410.695 255.548C407.256 249.534 397.119 249.596 394.616 243.138C392.153 236.787 399.189 231.054 401.554 224.673C404.666 216.273 398.846 206.683 390.942 202.484C383.038 198.284 373.678 198.125 364.722 198.1C263.722 197.803 162.772 202.603 62.2558 212.482C50.5046 213.632 42.4729 213.785 33.0515 220.105C22.3426 227.299 12.6606 237.109 2.7487 245.355V245.355Z" fill="url(#paint0_linear_27_95)"/>
<path opacity="0.18" d="M317.579 281.227C319.807 280.783 322.249 280.333 324.252 281.406C325.274 281.953 326.081 282.852 327.144 283.301C329.111 284.134 331.328 283.255 333.392 282.704C341.235 280.604 349.461 283.47 357.569 283.848C365.269 284.211 372.897 282.315 380.351 280.43C382.298 279.919 384.704 278.846 384.535 276.854C384.29 273.992 379.518 274.299 377.939 271.913L391.535 264.76C393.042 263.968 394.672 263.043 395.25 261.444C395.924 259.569 394.81 257.418 393.139 256.335C391.469 255.252 389.405 255.012 387.412 254.96C378.077 254.731 369.06 257.98 359.924 259.947C349.386 262.216 338.554 262.797 327.833 261.669C325.366 261.403 322.867 261.056 320.43 261.48C314.243 262.563 309.093 267.892 303.718 270.84C299.37 273.226 294.766 275.091 290.163 276.915C285.054 278.933 275.234 280.757 271.821 285.238C276.455 287.363 284.144 285.565 289.141 285.171C298.69 284.417 308.186 283.1 317.579 281.227V281.227Z" fill="url(#paint1_linear_27_95)"/>
<path d="M133.279 0H342.645V137.305H133.279V0Z" fill="url(#paint2_linear_27_95)"/>
<path d="M133.279 0H342.645V137.305H133.279V0Z" fill="url(#paint3_linear_27_95)"/>
<path d="M133.279 27.0074H290.143L310.426 127.414L132.068 48.3588L133.279 27.0074V27.0074Z" fill="url(#paint4_linear_27_95)"/>
<path d="M293.668 94.5871V209.943C293.668 212.382 292.699 214.721 290.974 216.446C289.25 218.171 286.91 219.14 284.471 219.14H36.7404C34.3013 219.14 31.9621 218.171 30.2374 216.446C28.5127 214.721 27.5438 212.382 27.5438 209.943V64.6623C27.5438 62.2232 28.5127 59.884 30.2374 58.1594C31.9621 56.4347 34.3013 55.4657 36.7404 55.4657H101.766C104.396 55.4669 106.929 56.4602 108.86 58.2474C110.79 60.0346 111.975 62.4841 112.178 65.1068L112.837 73.7925C113.08 76.9501 114.506 79.8997 116.83 82.0517C119.153 84.2037 122.203 85.3997 125.37 85.4007H284.487C286.651 85.4036 288.744 86.1696 290.399 87.5639C292.054 88.9582 293.165 90.8915 293.535 93.0236C293.623 93.5401 293.668 94.0631 293.668 94.5871V94.5871Z" fill="url(#paint5_linear_27_95)"/>
<path d="M293.668 94.5871V209.943C293.668 212.382 292.699 214.721 290.974 216.446C289.25 218.171 286.91 219.14 284.471 219.14H36.7404C34.3013 219.14 31.9621 218.171 30.2374 216.446C28.5127 214.721 27.5438 212.382 27.5438 209.943V64.6623C27.5438 62.2232 28.5127 59.884 30.2374 58.1594C31.9621 56.4347 34.3013 55.4657 36.7404 55.4657H101.766C104.396 55.4669 106.929 56.4602 108.86 58.2474C110.79 60.0346 111.975 62.4841 112.178 65.1068L112.837 73.7925C113.08 76.9501 114.506 79.8997 116.83 82.0517C119.153 84.2037 122.203 85.3997 125.37 85.4007H284.487C286.651 85.4036 288.744 86.1696 290.399 87.5639C292.054 88.9582 293.165 90.8915 293.535 93.0236C293.623 93.5401 293.668 94.0631 293.668 94.5871V94.5871Z" fill="url(#paint6_linear_27_95)"/>
<path d="M128.987 85.4007H125.37C122.203 85.3997 119.153 84.2037 116.83 82.0517C114.506 79.8997 113.08 76.9501 112.837 73.7925L112.178 65.1068C112.127 64.4154 112.007 63.7308 111.82 63.0631H116.93C119.561 63.0619 122.096 64.0544 124.026 65.8421C125.957 67.6298 127.141 70.0807 127.342 72.7042L128.006 81.3899C128.108 82.7721 128.44 84.1276 128.987 85.4007V85.4007Z" fill="#222A72"/>
<path d="M293.668 94.5871V209.943C293.668 212.382 292.699 214.721 290.974 216.446C289.25 218.171 286.91 219.14 284.471 219.14H42.8664C42.7779 218.625 42.7335 218.104 42.7335 217.581V72.2597C42.7335 69.8206 43.7024 67.4815 45.4271 65.7568C47.1518 64.0321 49.491 63.0631 51.9301 63.0631H111.82C112.007 63.7308 112.127 64.4154 112.178 65.1068L112.837 73.7925C113.08 76.9501 114.506 79.8997 116.83 82.0517C119.153 84.2037 122.203 85.3997 125.37 85.4007H128.987C129.958 87.6621 131.569 89.5894 133.623 90.9443C135.678 92.2992 138.084 93.0221 140.544 93.0236H293.535C293.623 93.5401 293.668 94.0631 293.668 94.5871V94.5871Z" fill="url(#paint7_linear_27_95)"/>
<path d="M293.668 90.7807V206.121C293.668 208.56 292.699 210.9 290.974 212.624C289.25 214.349 286.91 215.318 284.471 215.318H42.8664C42.7779 214.803 42.7335 214.282 42.7335 213.76V68.4738C42.7335 66.0347 43.7024 63.6955 45.4271 61.9708C47.1518 60.2461 49.491 59.2772 51.9301 59.2772H111.82C112.007 59.945 112.126 60.6296 112.178 61.3209L112.837 70.0066C113.079 73.1651 114.504 76.1159 116.828 78.269C119.152 80.4221 122.202 81.6188 125.37 81.6198H128.987C129.958 83.8813 131.569 85.8086 133.623 87.1635C135.678 88.5184 138.084 89.2413 140.544 89.2428H293.535C293.622 89.7508 293.667 90.2652 293.668 90.7807V90.7807Z" fill="url(#paint8_linear_27_95)"/>
<path d="M280.782 30.2262V85.4058H125.37C122.202 85.4047 119.152 84.208 116.828 82.0549C114.504 79.9019 113.079 76.951 112.837 73.7925L112.178 65.1068C111.977 62.4833 110.793 60.0324 108.862 58.2447C106.931 56.457 104.397 55.4645 101.766 55.4657H57.024V30.2262H280.782Z" fill="url(#paint9_linear_27_95)"/>
<path d="M280.782 30.2262V85.4058H125.37C122.202 85.4047 119.152 84.208 116.828 82.0549C114.504 79.9019 113.079 76.951 112.837 73.7925L112.178 65.1068C111.977 62.4833 110.793 60.0324 108.862 58.2447C106.931 56.457 104.397 55.4645 101.766 55.4657H57.024V30.2262H280.782Z" fill="url(#paint10_linear_27_95)"/>
<path d="M132.196 50.1675V85.4211H128.987V50.1675C128.987 49.9566 129.028 49.7477 129.108 49.5527C129.189 49.3578 129.307 49.1807 129.456 49.0316C129.605 48.8824 129.782 48.7643 129.977 48.6839C130.172 48.6035 130.381 48.5625 130.592 48.5632C130.803 48.5611 131.013 48.6012 131.208 48.6811C131.404 48.761 131.581 48.8791 131.731 49.0285C131.88 49.1779 131.998 49.3555 132.078 49.5511C132.158 49.7467 132.198 49.9562 132.196 50.1675V50.1675Z" fill="url(#paint11_linear_27_95)"/>
<path d="M147.657 50.1675V85.4211H144.448V50.1675C144.448 49.742 144.617 49.3339 144.918 49.0331C145.219 48.7322 145.627 48.5632 146.052 48.5632C146.478 48.5632 146.886 48.7322 147.187 49.0331C147.488 49.3339 147.657 49.742 147.657 50.1675V50.1675Z" fill="url(#paint12_linear_27_95)"/>
<path d="M163.148 50.1675V85.4211H159.919V50.1675C159.919 49.9568 159.96 49.7482 160.041 49.5535C160.121 49.3589 160.24 49.182 160.389 49.0331C160.538 48.8841 160.714 48.7659 160.909 48.6853C161.104 48.6047 161.312 48.5632 161.523 48.5632C161.734 48.5632 161.942 48.6047 162.137 48.6853C162.332 48.7659 162.508 48.8841 162.657 49.0331C162.806 49.182 162.925 49.3589 163.005 49.5535C163.086 49.7482 163.127 49.9568 163.127 50.1675H163.148Z" fill="url(#paint13_linear_27_95)"/>
<path d="M178.624 50.1675V85.4211H175.415V50.1675C175.414 49.957 175.455 49.7485 175.535 49.5539C175.615 49.3593 175.733 49.1824 175.882 49.0334C176.03 48.8843 176.207 48.7661 176.401 48.6854C176.595 48.6047 176.804 48.5632 177.014 48.5632C177.44 48.5628 177.849 48.7297 178.153 49.0281C178.303 49.1777 178.422 49.3553 178.502 49.5508C178.583 49.7464 178.624 49.9559 178.624 50.1675V50.1675Z" fill="url(#paint14_linear_27_95)"/>
<path d="M194.099 50.1675V85.4211H190.891V50.1675C190.891 49.742 191.06 49.3339 191.361 49.0331C191.661 48.7322 192.07 48.5632 192.495 48.5632C192.921 48.5632 193.329 48.7322 193.629 49.0331C193.93 49.3339 194.099 49.742 194.099 50.1675V50.1675Z" fill="url(#paint15_linear_27_95)"/>
<path d="M209.575 50.1675V85.4211H206.367V50.1675C206.366 49.957 206.407 49.7485 206.487 49.5539C206.567 49.3593 206.685 49.1824 206.833 49.0334C206.982 48.8843 207.158 48.7661 207.353 48.6854C207.547 48.6047 207.755 48.5632 207.966 48.5632C208.392 48.5628 208.801 48.7297 209.105 49.0281C209.255 49.1777 209.373 49.3553 209.454 49.5508C209.535 49.7464 209.576 49.9559 209.575 50.1675V50.1675Z" fill="url(#paint16_linear_27_95)"/>
<path d="M225.051 50.1675V85.4211H221.843V50.1675C221.843 49.742 222.012 49.3339 222.312 49.0331C222.613 48.7322 223.021 48.5632 223.447 48.5632C223.872 48.5632 224.28 48.7322 224.581 49.0331C224.882 49.3339 225.051 49.742 225.051 50.1675V50.1675Z" fill="url(#paint17_linear_27_95)"/>
<path d="M240.527 50.1675V85.4211H237.318V50.1675C237.318 49.742 237.487 49.3339 237.788 49.0331C238.089 48.7322 238.497 48.5632 238.923 48.5632C239.348 48.5632 239.756 48.7322 240.057 49.0331C240.358 49.3339 240.527 49.742 240.527 50.1675V50.1675Z" fill="url(#paint18_linear_27_95)"/>
<path d="M313.221 120.005C311.443 120.986 309.604 121.942 307.601 122.248C302.492 123.03 297.592 119.428 292.396 119.397C290.211 119.421 288.078 120.066 286.247 121.258C284.415 122.45 282.961 124.138 282.055 126.126C286.791 126.99 291.65 126.831 296.463 126.673L323.112 125.779C325.059 125.712 327.246 125.539 328.503 124.057C329.3 123.122 329.524 121.855 330.035 120.736C330.894 118.851 332.483 117.41 333.612 115.668C334.864 113.731 336.166 110.15 335.354 107.815C334.205 104.596 331.103 108.423 329.366 109.695C324.212 113.476 318.819 116.92 313.221 120.005V120.005Z" fill="url(#paint19_linear_27_95)"/>
<path d="M313.221 120.005C311.443 120.986 309.604 121.942 307.601 122.248C302.492 123.03 297.592 119.428 292.396 119.397C290.211 119.421 288.078 120.066 286.247 121.258C284.415 122.45 282.961 124.138 282.055 126.126C286.791 126.99 291.65 126.831 296.463 126.673L323.112 125.779C325.059 125.712 327.246 125.539 328.503 124.057C329.3 123.122 329.524 121.855 330.035 120.736C330.894 118.851 332.483 117.41 333.612 115.668C334.864 113.731 336.166 110.15 335.354 107.815C334.205 104.596 331.103 108.423 329.366 109.695C324.212 113.476 318.819 116.92 313.221 120.005V120.005Z" fill="url(#paint20_linear_27_95)"/>
<path d="M337.76 60.345C337.76 61.8063 338.782 63.0734 339.063 64.504C339.457 66.3893 338.598 68.5045 339.523 70.1905C340.545 72.0707 343.1 72.27 345.087 73.113C346.606 73.7996 347.872 74.9452 348.706 76.3887C349.54 77.8323 349.9 79.501 349.737 81.16C349.633 81.5526 349.672 81.9694 349.849 82.3351C349.997 82.4903 350.175 82.6127 350.373 82.6946C350.571 82.7764 350.784 82.8158 350.998 82.8103L355.975 83.3212C356.552 83.4398 357.151 83.3847 357.697 83.1628C358.194 82.8315 358.565 82.3417 358.749 81.7731C360.185 78.3295 359.924 74.4312 360.793 70.7985C361.907 65.9856 364.926 61.7296 365.703 56.8503C366.185 53.7609 365.741 50.5978 364.426 47.761C363.608 46.0035 362.382 44.3379 360.619 43.5357C359.365 43.0501 358.03 42.8056 356.685 42.8153C351.632 42.5701 344.683 43.1627 343.289 49.1763C342.824 51.22 343.146 52.8141 341.812 54.6125C340.479 56.4109 337.776 57.7853 337.76 60.345V60.345Z" fill="url(#paint21_linear_27_95)"/>
<path d="M340.964 39.9644C340.54 43.1065 343.1 45.8144 345.624 47.7253C348.148 49.6361 356.506 53.5958 357.043 56.0482C357.579 58.5006 357.411 61.045 357.237 63.5485C357.605 65.0813 360.987 60.9939 361.457 60.8304C361.777 60.7664 362.11 60.8299 362.384 61.0074C362.658 61.1849 362.851 61.4624 362.924 61.7807C363.04 62.4308 362.943 63.101 362.648 63.6916C361.897 65.536 358.8 69.981 359.715 73.3429C362.479 73.8538 363.317 66.9053 365.846 65.7302C369.422 64.0799 372.488 62.45 373.484 58.6539C374.685 54.1527 375.712 49.1303 373.525 45.0123C373.197 44.3468 372.73 43.7596 372.156 43.2905C371.645 42.9073 371.057 42.6671 370.526 42.3299C369.08 41.4256 368.171 39.8979 367.098 38.5746C364.532 35.4146 360.933 33.2615 356.936 32.4947C353.563 31.8611 349.425 32.1575 346.39 33.8997C344.229 35.1566 341.296 37.3331 340.964 39.9644V39.9644Z" fill="#3F3D56"/>
<path d="M366.684 137.826C367.908 135.352 368.999 132.814 369.954 130.224C373.561 119.893 372.672 108.602 371.573 97.7139C371.465 96.0623 371.183 94.4267 370.73 92.8346C370.05 90.9713 369.122 89.208 367.971 87.5925C366.377 85.1674 364.708 82.783 362.964 80.4396C362.52 79.8469 362.014 79.2185 361.294 79.0448C360.779 78.9692 360.254 79.0164 359.761 79.1827L355.561 80.2506C351.811 81.206 347.744 82.3709 345.516 85.5386C338.675 95.2461 332.662 106.364 328.916 117.645C325.51 127.928 322.104 138.213 318.698 148.5C317.359 152.526 316.097 157.211 318.397 160.762C321.11 164.951 327.082 165.135 332.048 164.849L340.887 164.338C344.607 164.129 348.715 163.751 351.29 161.058C352.075 160.164 352.75 159.179 353.303 158.125C357.85 150.216 362.755 146.119 366.684 137.826V137.826Z" fill="url(#paint22_linear_27_95)"/>
<path d="M366.684 137.826C367.908 135.352 368.999 132.814 369.954 130.224C373.561 119.893 372.672 108.602 371.573 97.7139C371.465 96.0623 371.183 94.4267 370.73 92.8346C370.05 90.9712 369.122 89.208 367.971 87.5925C366.377 85.1673 364.708 82.783 362.964 80.4396C362.52 79.8469 362.014 79.2185 361.294 79.0448C360.779 78.9692 360.254 79.0164 359.761 79.1827L355.561 80.2506C351.811 81.206 347.744 82.3709 345.516 85.5386C338.675 95.2461 332.662 106.364 328.916 117.645C325.51 127.928 322.104 138.213 318.698 148.5C317.359 152.526 316.097 157.211 318.397 160.762C321.11 164.951 327.082 165.135 332.048 164.849L340.887 164.338C344.607 164.129 348.715 163.751 351.29 161.058C352.075 160.164 352.75 159.179 353.303 158.125C357.85 150.216 362.755 146.119 366.684 137.826V137.826Z" fill="url(#paint23_linear_27_95)"/>
<path d="M250.245 125.074H421V231.049H250.245V125.074Z" fill="url(#paint24_linear_27_95)"/>
<path d="M250.245 125.074H421V231.049H250.245V125.074Z" fill="url(#paint25_linear_27_95)"/>
<path d="M283.593 215.763C283.168 215.761 282.76 215.592 282.46 215.291C282.159 214.991 281.99 214.583 281.988 214.158V143.687C281.988 143.261 282.157 142.853 282.458 142.552C282.759 142.251 283.167 142.082 283.593 142.082C283.803 142.082 284.012 142.123 284.207 142.203C284.402 142.284 284.579 142.402 284.729 142.551C284.878 142.7 284.996 142.877 285.076 143.072C285.157 143.267 285.198 143.476 285.197 143.687V214.158C285.197 214.584 285.028 214.992 284.727 215.293C284.426 215.593 284.018 215.763 283.593 215.763V215.763Z" fill="url(#paint26_linear_27_95)"/>
<path d="M299.068 215.763C298.643 215.761 298.236 215.592 297.935 215.291C297.635 214.991 297.465 214.583 297.464 214.158V143.687C297.464 143.261 297.633 142.853 297.934 142.552C298.235 142.251 298.643 142.082 299.068 142.082C299.279 142.082 299.488 142.123 299.683 142.203C299.878 142.284 300.055 142.402 300.204 142.551C300.353 142.7 300.472 142.877 300.552 143.072C300.632 143.267 300.673 143.476 300.673 143.687V214.158C300.673 214.584 300.504 214.992 300.203 215.293C299.902 215.593 299.494 215.763 299.068 215.763Z" fill="url(#paint27_linear_27_95)"/>
<path d="M314.544 215.763C314.119 215.761 313.712 215.592 313.411 215.291C313.111 214.991 312.941 214.583 312.94 214.158V143.687C312.94 143.261 313.109 142.853 313.41 142.552C313.711 142.251 314.119 142.082 314.544 142.082C314.755 142.082 314.964 142.123 315.159 142.203C315.354 142.284 315.531 142.402 315.68 142.551C315.829 142.7 315.947 142.877 316.028 143.072C316.108 143.267 316.149 143.476 316.149 143.687V214.158C316.149 214.584 315.979 214.992 315.679 215.293C315.378 215.593 314.97 215.763 314.544 215.763Z" fill="url(#paint28_linear_27_95)"/>
<path d="M330.02 215.763C329.595 215.761 329.188 215.592 328.887 215.291C328.587 214.991 328.417 214.583 328.416 214.158V143.687C328.416 143.261 328.585 142.853 328.886 142.552C329.187 142.251 329.595 142.082 330.02 142.082C330.231 142.082 330.44 142.123 330.635 142.203C330.83 142.284 331.007 142.402 331.156 142.551C331.305 142.7 331.423 142.877 331.504 143.072C331.584 143.267 331.625 143.476 331.624 143.687V214.158C331.624 214.584 331.455 214.992 331.154 215.293C330.854 215.593 330.446 215.763 330.02 215.763Z" fill="url(#paint29_linear_27_95)"/>
<path d="M345.496 215.763C345.07 215.763 344.662 215.593 344.361 215.293C344.061 214.992 343.892 214.584 343.892 214.158V143.687C343.891 143.476 343.932 143.267 344.012 143.072C344.093 142.877 344.211 142.7 344.36 142.551C344.509 142.402 344.686 142.284 344.881 142.203C345.076 142.123 345.285 142.082 345.496 142.082C345.921 142.082 346.329 142.251 346.63 142.552C346.931 142.853 347.1 143.261 347.1 143.687V214.158C347.099 214.583 346.929 214.991 346.629 215.291C346.328 215.592 345.921 215.761 345.496 215.763V215.763Z" fill="url(#paint30_linear_27_95)"/>
<path d="M360.972 215.763C360.546 215.763 360.138 215.593 359.837 215.293C359.536 214.992 359.367 214.584 359.367 214.158V143.687C359.367 143.476 359.408 143.267 359.488 143.072C359.569 142.877 359.687 142.7 359.836 142.551C359.985 142.402 360.162 142.284 360.357 142.203C360.552 142.123 360.761 142.082 360.972 142.082C361.397 142.082 361.805 142.251 362.106 142.552C362.407 142.853 362.576 143.261 362.576 143.687V214.158C362.575 214.583 362.405 214.991 362.105 215.291C361.804 215.592 361.397 215.761 360.972 215.763V215.763Z" fill="url(#paint31_linear_27_95)"/>
<path d="M376.448 215.763C376.022 215.763 375.614 215.593 375.313 215.293C375.012 214.992 374.843 214.584 374.843 214.158V143.687C374.843 143.476 374.884 143.267 374.964 143.072C375.044 142.877 375.163 142.7 375.312 142.551C375.461 142.402 375.638 142.284 375.833 142.203C376.028 142.123 376.237 142.082 376.448 142.082C376.873 142.082 377.281 142.251 377.582 142.552C377.883 142.853 378.052 143.261 378.052 143.687V214.158C378.051 214.583 377.881 214.991 377.58 215.291C377.28 215.592 376.873 215.761 376.448 215.763V215.763Z" fill="url(#paint32_linear_27_95)"/>
<path d="M393.528 143.687C393.528 142.801 392.809 142.082 391.923 142.082C391.037 142.082 390.319 142.801 390.319 143.687V214.158C390.319 215.044 391.037 215.763 391.923 215.763C392.809 215.763 393.528 215.044 393.528 214.158V143.687Z" fill="url(#paint33_linear_27_95)"/>
<path d="M350.493 117.252C349.938 131.217 348.87 145.143 347.289 159.03C346.978 161.799 346.651 164.65 347.402 167.332C348.153 170.015 350.283 172.513 353.052 172.809C355.49 173.07 357.845 171.563 359.265 169.565C360.686 167.567 361.309 165.135 361.897 162.754C366.36 143.978 367.595 124.579 365.55 105.388C365.228 102.353 364.799 99.2569 363.414 96.5388C362.029 93.8207 359.495 91.5011 356.46 91.1588C351.765 90.6478 348.945 94.6075 349.307 98.7204C349.905 105.02 350.748 110.855 350.493 117.252V117.252Z" fill="url(#paint34_linear_27_95)"/>
<path d="M284.39 123.71C283.881 123.954 283.446 124.327 283.128 124.793C282.903 125.244 282.773 125.736 282.744 126.239C282.515 128.16 282.3 130.209 283.153 131.946C283.201 132.068 283.284 132.174 283.393 132.247C283.503 132.285 283.621 132.285 283.731 132.247C283.932 132.189 284.118 132.088 284.277 131.95C284.435 131.813 284.56 131.642 284.645 131.45C284.81 131.065 284.916 130.656 284.957 130.239C285.222 128.558 285.468 126.872 285.749 125.186C285.42 126.327 285.307 127.519 285.417 128.701C285.529 129.891 286.034 131.009 286.852 131.879C286.987 132.037 287.164 132.152 287.363 132.211C287.874 132.308 288.242 131.782 288.446 131.317C289.245 129.514 289.605 127.548 289.499 125.58C289.259 127.513 289.616 129.474 290.521 131.2C290.599 131.371 290.712 131.524 290.853 131.649C291.128 131.825 291.453 131.904 291.778 131.874C292.088 131.917 292.403 131.848 292.667 131.68C292.842 131.514 292.966 131.301 293.024 131.067C293.582 129.384 293.795 127.607 293.653 125.84C293.803 127.754 294.191 129.642 294.807 131.46C294.888 131.813 295.078 132.131 295.349 132.37C295.618 132.517 295.933 132.559 296.231 132.487C296.529 132.415 296.791 132.235 296.963 131.981C297.295 131.461 297.472 130.857 297.474 130.239C297.551 129.432 297.214 128.594 297.444 127.817C299.911 119.423 286.009 122.78 284.39 123.71V123.71Z" fill="url(#paint35_linear_27_95)"/>
<path d="M344.076 179.768C343.232 180.151 342.231 180.846 342.466 181.74C342.65 182.435 343.519 182.716 344.229 182.609C344.939 182.501 345.588 182.139 346.272 182.016C346.407 181.977 346.549 181.969 346.688 181.994C346.826 182.019 346.957 182.075 347.07 182.159C347.188 182.294 347.264 182.461 347.289 182.639C347.524 183.881 346.86 185.107 346.094 186.114C345.327 187.12 344.428 188.071 344.05 189.276C344.959 189.736 346.058 189.179 346.788 188.469C347.519 187.759 348.112 186.865 349.026 186.425L346.676 190.615C346.462 190.993 346.257 191.499 346.538 191.831C346.916 192.275 347.626 191.872 348.035 191.458C349.247 190.226 350.339 188.882 351.295 187.442C350.58 188.883 350.132 190.44 349.972 192.04C350.682 192.117 351.188 191.407 351.535 190.784L353.579 187.069C353.556 188.217 353.275 189.345 352.756 190.37C353.824 190.14 354.335 188.954 354.682 187.922C355.643 185.082 356.614 182.159 356.486 179.16C356.46 178.506 356.333 177.765 355.781 177.408C355.423 177.218 355.019 177.133 354.616 177.162C350.62 177.106 347.708 178.113 344.076 179.768V179.768Z" fill="url(#paint36_linear_27_95)"/>
<path d="M348.868 173.249C348.939 172.8 349.138 172.382 349.44 172.043C349.882 171.711 350.42 171.532 350.973 171.532L354.887 171.082C355.862 170.97 357.063 170.96 357.594 171.793C357.834 172.265 357.916 172.802 357.83 173.325C357.737 174.65 357.492 175.96 357.099 177.229C356.992 177.561 350.503 178.22 349.915 178.072C347.683 177.474 348.331 175.43 348.868 173.249V173.249Z" fill="url(#paint37_linear_27_95)"/>
<path d="M308.837 231.049L296.912 271.187H307.693L330.143 231.049H308.837V231.049ZM361.248 231.049L373.178 271.187H362.397L339.942 231.049H361.248V231.049Z" fill="url(#paint38_linear_27_95)"/>
<path d="M307.105 279.653C306.083 279.914 305 280.164 303.994 279.863C302.987 279.561 302.149 278.437 302.532 277.451C300.1 278.09 297.847 279.311 295.415 279.95C291.43 281.002 287.241 280.461 283.153 279.888C283.507 278.487 284.147 277.173 285.032 276.03C285.917 274.887 287.029 273.939 288.298 273.246C290.853 271.877 293.821 271.632 296.703 271.417L302.236 271.003C303.345 270.922 305.741 270.247 306.707 271.034C307.672 271.821 307.749 279.49 307.105 279.653V279.653ZM373.484 279.653C372.462 279.914 371.374 280.164 370.368 279.863C369.361 279.561 368.523 278.437 368.911 277.451C366.474 278.09 364.221 279.311 361.789 279.95C357.804 281.002 353.614 280.461 349.527 279.888C349.881 278.486 350.521 277.172 351.407 276.029C352.294 274.886 353.407 273.938 354.677 273.246C357.232 271.877 360.195 271.632 363.077 271.417L368.579 271.009C369.693 270.927 372.089 270.252 373.05 271.039C374.011 271.826 374.102 279.49 373.484 279.653V279.653Z" fill="url(#paint39_linear_27_95)"/>
<path d="M308.837 231.049L296.912 271.187H307.693L330.143 231.049H308.837V231.049Z" fill="url(#paint40_linear_27_95)"/>
<path d="M361.248 231.049L373.178 271.187H362.397L339.942 231.049H361.248V231.049Z" fill="url(#paint41_linear_27_95)"/>
<path d="M307.105 279.653C306.083 279.914 305 280.164 303.994 279.863C302.987 279.561 302.149 278.437 302.532 277.451C300.1 278.09 297.847 279.311 295.415 279.95C291.43 281.002 287.241 280.461 283.153 279.888C283.507 278.487 284.147 277.173 285.032 276.03C285.917 274.887 287.029 273.939 288.298 273.246C290.853 271.877 293.821 271.632 296.703 271.417L302.236 271.003C303.345 270.922 305.741 270.247 306.707 271.034C307.672 271.821 307.749 279.49 307.105 279.653V279.653Z" fill="url(#paint42_linear_27_95)"/>
<path d="M373.484 279.653C372.462 279.914 371.374 280.164 370.368 279.863C369.361 279.561 368.523 278.437 368.911 277.451C366.474 278.09 364.221 279.311 361.789 279.95C357.804 281.002 353.614 280.461 349.527 279.888C349.881 278.486 350.521 277.172 351.407 276.029C352.294 274.886 353.407 273.938 354.677 273.246C357.232 271.877 360.195 271.632 363.077 271.417L368.579 271.009C369.693 270.927 372.089 270.252 373.05 271.039C374.011 271.826 374.102 279.49 373.484 279.653V279.653Z" fill="url(#paint43_linear_27_95)"/>
</g>
<defs>
<linearGradient id="paint0_linear_27_95" x1="0.0142822" y1="198.087" x2="414.177" y2="277.885" gradientUnits="userSpaceOnUse">
<stop stop-color="#7F5523"/>
<stop offset="0.520833" stop-color="#F5AC05"/>
<stop offset="0.817708" stop-color="#FEEA09"/>
</linearGradient>
<linearGradient id="paint1_linear_27_95" x1="271.821" y1="254.949" x2="397.137" y2="276.398" gradientUnits="userSpaceOnUse">
<stop stop-color="#7F5523"/>
<stop offset="0.520833" stop-color="#F5AC05"/>
<stop offset="0.817708" stop-color="#FEEA09"/>
</linearGradient>
<linearGradient id="paint2_linear_27_95" x1="133.279" y1="0" x2="350.77" y2="14.3741" gradientUnits="userSpaceOnUse">
<stop stop-color="#7F5523"/>
<stop offset="0.520833" stop-color="#F5AC05"/>
<stop offset="0.817708" stop-color="#FEEA09"/>
</linearGradient>
<linearGradient id="paint3_linear_27_95" x1="200.695" y1="123.796" x2="378.134" y2="-138.787" gradientUnits="userSpaceOnUse">
<stop offset="0.03" stop-color="white"/>
<stop offset="0.09" stop-color="white" stop-opacity="0.84"/>
<stop offset="0.18" stop-color="white" stop-opacity="0.64"/>
<stop offset="0.28" stop-color="white" stop-opacity="0.47"/>
<stop offset="0.37" stop-color="white" stop-opacity="0.33"/>
<stop offset="0.47" stop-color="white" stop-opacity="0.21"/>
<stop offset="0.58" stop-color="white" stop-opacity="0.12"/>
<stop offset="0.69" stop-color="white" stop-opacity="0.05"/>
<stop offset="0.82" stop-color="white" stop-opacity="0.01"/>
<stop offset="0.98" stop-color="white" stop-opacity="0"/>
</linearGradient>
<linearGradient id="paint4_linear_27_95" x1="351.443" y1="-115.785" x2="156.741" y2="174.189" gradientUnits="userSpaceOnUse">
<stop offset="0.01"/>
<stop offset="0.1" stop-opacity="0.77"/>
<stop offset="0.97" stop-opacity="0"/>
</linearGradient>
<linearGradient id="paint5_linear_27_95" x1="27.5438" y1="55.4657" x2="303.831" y2="74.9367" gradientUnits="userSpaceOnUse">
<stop stop-color="#7F5523"/>
<stop offset="0.520833" stop-color="#F5AC05"/>
<stop offset="0.817708" stop-color="#FEEA09"/>
</linearGradient>
<linearGradient id="paint6_linear_27_95" x1="353.364" y1="132.896" x2="-89.6311" y2="143.017" gradientUnits="userSpaceOnUse">
<stop offset="0.01"/>
<stop offset="0.1" stop-opacity="0.77"/>
<stop offset="0.97" stop-opacity="0"/>
</linearGradient>
<linearGradient id="paint7_linear_27_95" x1="42.7335" y1="63.0631" x2="303.279" y2="81.2195" gradientUnits="userSpaceOnUse">
<stop stop-color="#7F5523"/>
<stop offset="0.520833" stop-color="#F5AC05"/>
<stop offset="0.817708" stop-color="#FEEA09"/>
</linearGradient>
<linearGradient id="paint8_linear_27_95" x1="-51.2047" y1="191.744" x2="344.755" y2="93.4988" gradientUnits="userSpaceOnUse">
<stop offset="0.01" stop-color="white"/>
<stop offset="0.1" stop-color="white" stop-opacity="0.77"/>
<stop offset="0.97" stop-color="white" stop-opacity="0"/>
</linearGradient>
<linearGradient id="paint9_linear_27_95" x1="57.024" y1="30.2262" x2="283.485" y2="70.0293" gradientUnits="userSpaceOnUse">
<stop stop-color="#7F5523"/>
<stop offset="0.520833" stop-color="#F5AC05"/>
<stop offset="0.817708" stop-color="#FEEA09"/>
</linearGradient>
<linearGradient id="paint10_linear_27_95" x1="170.342" y1="4.54721" x2="166.77" y2="136.728" gradientUnits="userSpaceOnUse">
<stop offset="0.03" stop-color="white"/>
<stop offset="0.09" stop-color="white" stop-opacity="0.84"/>
<stop offset="0.18" stop-color="white" stop-opacity="0.64"/>
<stop offset="0.28" stop-color="white" stop-opacity="0.47"/>
<stop offset="0.37" stop-color="white" stop-opacity="0.33"/>
<stop offset="0.47" stop-color="white" stop-opacity="0.21"/>
<stop offset="0.58" stop-color="white" stop-opacity="0.12"/>
<stop offset="0.69" stop-color="white" stop-opacity="0.05"/>
<stop offset="0.82" stop-color="white" stop-opacity="0.01"/>
<stop offset="0.98" stop-color="white" stop-opacity="0"/>
</linearGradient>
<linearGradient id="paint11_linear_27_95" x1="128.987" y1="48.5631" x2="132.335" y2="48.5757" gradientUnits="userSpaceOnUse">
<stop stop-color="#7F5523"/>
<stop offset="0.520833" stop-color="#F5AC05"/>
<stop offset="0.817708" stop-color="#FEEA09"/>
</linearGradient>
<linearGradient id="paint12_linear_27_95" x1="144.448" y1="48.5632" x2="147.796" y2="48.5758" gradientUnits="userSpaceOnUse">
<stop stop-color="#7F5523"/>
<stop offset="0.520833" stop-color="#F5AC05"/>
<stop offset="0.817708" stop-color="#FEEA09"/>
</linearGradient>
<linearGradient id="paint13_linear_27_95" x1="159.919" y1="48.5632" x2="163.288" y2="48.576" gradientUnits="userSpaceOnUse">
<stop stop-color="#7F5523"/>
<stop offset="0.520833" stop-color="#F5AC05"/>
<stop offset="0.817708" stop-color="#FEEA09"/>
</linearGradient>
<linearGradient id="paint14_linear_27_95" x1="175.415" y1="48.5632" x2="178.763" y2="48.5758" gradientUnits="userSpaceOnUse">
<stop stop-color="#7F5523"/>
<stop offset="0.520833" stop-color="#F5AC05"/>
<stop offset="0.817708" stop-color="#FEEA09"/>
</linearGradient>
<linearGradient id="paint15_linear_27_95" x1="190.891" y1="48.5632" x2="194.238" y2="48.5758" gradientUnits="userSpaceOnUse">
<stop stop-color="#7F5523"/>
<stop offset="0.520833" stop-color="#F5AC05"/>
<stop offset="0.817708" stop-color="#FEEA09"/>
</linearGradient>
<linearGradient id="paint16_linear_27_95" x1="206.367" y1="48.5632" x2="209.714" y2="48.5758" gradientUnits="userSpaceOnUse">
<stop stop-color="#7F5523"/>
<stop offset="0.520833" stop-color="#F5AC05"/>
<stop offset="0.817708" stop-color="#FEEA09"/>
</linearGradient>
<linearGradient id="paint17_linear_27_95" x1="221.843" y1="48.5632" x2="225.19" y2="48.5758" gradientUnits="userSpaceOnUse">
<stop stop-color="#7F5523"/>
<stop offset="0.520833" stop-color="#F5AC05"/>
<stop offset="0.817708" stop-color="#FEEA09"/>
</linearGradient>
<linearGradient id="paint18_linear_27_95" x1="237.318" y1="48.5632" x2="240.666" y2="48.5758" gradientUnits="userSpaceOnUse">
<stop stop-color="#7F5523"/>
<stop offset="0.520833" stop-color="#F5AC05"/>
<stop offset="0.817708" stop-color="#FEEA09"/>
</linearGradient>
<linearGradient id="paint19_linear_27_95" x1="282.055" y1="106.557" x2="337.202" y2="112.881" gradientUnits="userSpaceOnUse">
<stop stop-color="#7F5523"/>
<stop offset="0.520833" stop-color="#F5AC05"/>
<stop offset="0.817708" stop-color="#FEEA09"/>
</linearGradient>
<linearGradient id="paint20_linear_27_95" x1="309.088" y1="137.448" x2="308.735" y2="109.562" gradientUnits="userSpaceOnUse">
<stop offset="0.01"/>
<stop offset="0.1" stop-opacity="0.77"/>
<stop offset="0.97" stop-opacity="0"/>
</linearGradient>
<linearGradient id="paint21_linear_27_95" x1="337.76" y1="63.0989" x2="365.866" y2="63.0989" gradientUnits="userSpaceOnUse">
<stop stop-color="#ECC4D7"/>
<stop offset="0.42" stop-color="#EFD4D1"/>
<stop offset="1" stop-color="#F2EAC9"/>
</linearGradient>
<linearGradient id="paint22_linear_27_95" x1="317.124" y1="79.0098" x2="374.896" y2="80.6246" gradientUnits="userSpaceOnUse">
<stop stop-color="#7F5523"/>
<stop offset="0.520833" stop-color="#F5AC05"/>
<stop offset="0.817708" stop-color="#FEEA09"/>
</linearGradient>
<linearGradient id="paint23_linear_27_95" x1="344.377" y1="157.563" x2="345.828" y2="82.1921" gradientUnits="userSpaceOnUse">
<stop offset="0.01"/>
<stop offset="0.1" stop-opacity="0.77"/>
<stop offset="0.97" stop-opacity="0"/>
</linearGradient>
<linearGradient id="paint24_linear_27_95" x1="250.245" y1="125.074" x2="427.536" y2="137.455" gradientUnits="userSpaceOnUse">
<stop stop-color="#7F5523"/>
<stop offset="0.520833" stop-color="#F5AC05"/>
<stop offset="0.817708" stop-color="#FEEA09"/>
</linearGradient>
<linearGradient id="paint25_linear_27_95" x1="350.426" y1="84.4197" x2="314.907" y2="309.072" gradientUnits="userSpaceOnUse">
<stop offset="0.03" stop-color="white"/>
<stop offset="0.09" stop-color="white" stop-opacity="0.84"/>
<stop offset="0.18" stop-color="white" stop-opacity="0.64"/>
<stop offset="0.28" stop-color="white" stop-opacity="0.47"/>
<stop offset="0.37" stop-color="white" stop-opacity="0.33"/>
<stop offset="0.47" stop-color="white" stop-opacity="0.21"/>
<stop offset="0.58" stop-color="white" stop-opacity="0.12"/>
<stop offset="0.69" stop-color="white" stop-opacity="0.05"/>
<stop offset="0.82" stop-color="white" stop-opacity="0.01"/>
<stop offset="0.98" stop-color="white" stop-opacity="0"/>
</linearGradient>
<linearGradient id="paint26_linear_27_95" x1="281.988" y1="142.082" x2="285.336" y2="142.089" gradientUnits="userSpaceOnUse">
<stop stop-color="#7F5523"/>
<stop offset="0.520833" stop-color="#F5AC05"/>
<stop offset="0.817708" stop-color="#FEEA09"/>
</linearGradient>
<linearGradient id="paint27_linear_27_95" x1="297.464" y1="142.082" x2="300.812" y2="142.089" gradientUnits="userSpaceOnUse">
<stop stop-color="#7F5523"/>
<stop offset="0.520833" stop-color="#F5AC05"/>
<stop offset="0.817708" stop-color="#FEEA09"/>
</linearGradient>
<linearGradient id="paint28_linear_27_95" x1="312.94" y1="142.082" x2="316.288" y2="142.089" gradientUnits="userSpaceOnUse">
<stop stop-color="#7F5523"/>
<stop offset="0.520833" stop-color="#F5AC05"/>
<stop offset="0.817708" stop-color="#FEEA09"/>
</linearGradient>
<linearGradient id="paint29_linear_27_95" x1="328.416" y1="142.082" x2="331.763" y2="142.089" gradientUnits="userSpaceOnUse">
<stop stop-color="#7F5523"/>
<stop offset="0.520833" stop-color="#F5AC05"/>
<stop offset="0.817708" stop-color="#FEEA09"/>
</linearGradient>
<linearGradient id="paint30_linear_27_95" x1="343.892" y1="142.082" x2="347.239" y2="142.089" gradientUnits="userSpaceOnUse">
<stop stop-color="#7F5523"/>
<stop offset="0.520833" stop-color="#F5AC05"/>
<stop offset="0.817708" stop-color="#FEEA09"/>
</linearGradient>
<linearGradient id="paint31_linear_27_95" x1="359.367" y1="142.082" x2="362.715" y2="142.089" gradientUnits="userSpaceOnUse">
<stop stop-color="#7F5523"/>
<stop offset="0.520833" stop-color="#F5AC05"/>
<stop offset="0.817708" stop-color="#FEEA09"/>
</linearGradient>
<linearGradient id="paint32_linear_27_95" x1="374.843" y1="142.082" x2="378.191" y2="142.089" gradientUnits="userSpaceOnUse">
<stop stop-color="#7F5523"/>
<stop offset="0.520833" stop-color="#F5AC05"/>
<stop offset="0.817708" stop-color="#FEEA09"/>
</linearGradient>
<linearGradient id="paint33_linear_27_95" x1="390.319" y1="142.082" x2="393.667" y2="142.089" gradientUnits="userSpaceOnUse">
<stop stop-color="#7F5523"/>
<stop offset="0.520833" stop-color="#F5AC05"/>
<stop offset="0.817708" stop-color="#FEEA09"/>
</linearGradient>
<linearGradient id="paint34_linear_27_95" x1="346.943" y1="91.1141" x2="367.354" y2="91.3259" gradientUnits="userSpaceOnUse">
<stop stop-color="#7F5523"/>
<stop offset="0.520833" stop-color="#F5AC05"/>
<stop offset="0.817708" stop-color="#FEEA09"/>
</linearGradient>
<linearGradient id="paint35_linear_27_95" x1="282.54" y1="127.414" x2="297.74" y2="127.414" gradientUnits="userSpaceOnUse">
<stop stop-color="#ECC4D7"/>
<stop offset="0.42" stop-color="#EFD4D1"/>
<stop offset="1" stop-color="#F2EAC9"/>
</linearGradient>
<linearGradient id="paint36_linear_27_95" x1="342.43" y1="184.601" x2="356.562" y2="184.601" gradientUnits="userSpaceOnUse">
<stop stop-color="#ECC4D7"/>
<stop offset="0.42" stop-color="#EFD4D1"/>
<stop offset="1" stop-color="#F2EAC9"/>
</linearGradient>
<linearGradient id="paint37_linear_27_95" x1="348.348" y1="171.028" x2="358.242" y2="171.606" gradientUnits="userSpaceOnUse">
<stop stop-color="#7F5523"/>
<stop offset="0.520833" stop-color="#F5AC05"/>
<stop offset="0.817708" stop-color="#FEEA09"/>
</linearGradient>
<linearGradient id="paint38_linear_27_95" x1="296.912" y1="231.049" x2="375.947" y2="237.558" gradientUnits="userSpaceOnUse">
<stop stop-color="#7F5523"/>
<stop offset="0.520833" stop-color="#F5AC05"/>
<stop offset="0.817708" stop-color="#FEEA09"/>
</linearGradient>
<linearGradient id="paint39_linear_27_95" x1="283.153" y1="270.657" x2="364.891" y2="303.15" gradientUnits="userSpaceOnUse">
<stop stop-color="#7F5523"/>
<stop offset="0.520833" stop-color="#F5AC05"/>
<stop offset="0.817708" stop-color="#FEEA09"/>
</linearGradient>
<linearGradient id="paint40_linear_27_95" x1="325.652" y1="211.869" x2="284.175" y2="340.959" gradientUnits="userSpaceOnUse">
<stop offset="0.01"/>
<stop offset="0.1" stop-opacity="0.77"/>
<stop offset="0.97" stop-opacity="0"/>
</linearGradient>
<linearGradient id="paint41_linear_27_95" x1="346.165" y1="204.282" x2="376.79" y2="342.282" gradientUnits="userSpaceOnUse">
<stop offset="0.01"/>
<stop offset="0.1" stop-opacity="0.77"/>
<stop offset="0.97" stop-opacity="0"/>
</linearGradient>
<linearGradient id="paint42_linear_27_95" x1="294.567" y1="245.902" x2="296.892" y2="345.143" gradientUnits="userSpaceOnUse">
<stop offset="0.01"/>
<stop offset="0.1" stop-opacity="0.77"/>
<stop offset="0.97" stop-opacity="0"/>
</linearGradient>
<linearGradient id="paint43_linear_27_95" x1="360.885" y1="244.349" x2="363.21" y2="343.59" gradientUnits="userSpaceOnUse">
<stop offset="0.01"/>
<stop offset="0.1" stop-opacity="0.77"/>
<stop offset="0.97" stop-opacity="0"/>
</linearGradient>
<clipPath id="clip0_27_95">
<rect width="421" height="290.705" fill="white"/>
</clipPath>
</defs>
</svg>
