<svg width="174" height="174" viewBox="0 0 174 174" fill="none" xmlns="http://www.w3.org/2000/svg">
<path fill-rule="evenodd" clip-rule="evenodd" d="M87.1249 37.0002C77.9384 37.0002 69.3228 39.4629 61.9002 43.7611L63.6504 46.7924C70.5559 42.8003 78.5672 40.5052 87.125 40.5052V37.0004L87.1249 37.0002Z" fill="url(#paint0_linear_23_94)"/>
<path fill-rule="evenodd" clip-rule="evenodd" d="M62.1073 43.6424C54.4558 48.0732 48.0731 54.4558 43.6424 62.1074L46.6738 63.8575C50.7942 56.7305 56.7307 50.7938 63.8577 46.6736L62.1075 43.6423L62.1073 43.6424Z" fill="url(#paint1_linear_23_94)"/>
<path fill-rule="evenodd" clip-rule="evenodd" d="M43.7609 61.9002C39.4626 69.3227 37 77.939 37 87.1249H40.5049C40.5049 78.5671 42.8 70.5552 46.7921 63.6503L43.7607 61.9001L43.7609 61.9002Z" fill="url(#paint2_linear_23_94)"/>
<path fill-rule="evenodd" clip-rule="evenodd" d="M37 86.8752C37 96.0617 39.4626 104.677 43.7609 112.1L46.7923 110.35C42.7999 103.445 40.505 95.4331 40.505 86.8752H37.0002H37Z" fill="url(#paint3_linear_23_94)"/>
<path fill-rule="evenodd" clip-rule="evenodd" d="M46.6735 110.142L43.6421 111.892C48.0731 119.543 54.4555 125.926 62.1076 130.357L63.8578 127.325C56.7302 123.202 50.7935 117.268 46.6733 110.14L46.6735 110.142Z" fill="url(#paint4_linear_23_94)"/>
<path fill-rule="evenodd" clip-rule="evenodd" d="M63.6498 127.205L61.8997 130.237C69.3222 134.535 77.9384 136.998 87.1244 136.998V133.493C78.5665 133.493 70.5547 131.197 63.6498 127.205L63.6498 127.205Z" fill="url(#paint5_linear_23_94)"/>
<path fill-rule="evenodd" clip-rule="evenodd" d="M110.35 127.205C103.444 131.197 95.4329 133.492 86.8751 133.492V136.997C96.0616 136.997 104.677 134.535 112.1 130.236L110.35 127.205L110.35 127.205Z" fill="url(#paint6_linear_23_94)"/>
<path fill-rule="evenodd" clip-rule="evenodd" d="M127.329 110.142C123.205 117.269 117.269 123.203 110.142 127.327L111.892 130.358C119.544 125.927 125.926 119.545 130.357 111.893L127.326 110.143L127.329 110.142Z" fill="url(#paint7_linear_23_94)"/>
<path fill-rule="evenodd" clip-rule="evenodd" d="M133.494 86.8752C133.494 95.4331 131.199 103.445 127.207 110.35L130.238 112.1C134.536 104.677 136.999 96.0612 136.999 86.8752H133.494H133.494Z" fill="url(#paint8_linear_23_94)"/>
<path fill-rule="evenodd" clip-rule="evenodd" d="M130.238 61.9001L127.207 63.6503C131.199 70.5552 133.494 78.5671 133.494 87.1249H136.999C136.999 77.9384 134.536 69.3227 130.238 61.9002L130.238 61.9001Z" fill="url(#paint9_linear_23_94)"/>
<path fill-rule="evenodd" clip-rule="evenodd" d="M111.892 43.6426L110.142 46.6739C117.269 50.7942 123.206 56.7308 127.326 63.8578L130.357 62.1076C125.927 54.4561 119.542 48.0734 111.89 43.6427L111.892 43.6426Z" fill="url(#paint10_linear_23_94)"/>
<path fill-rule="evenodd" clip-rule="evenodd" d="M86.8751 37.0002V40.505C95.4329 40.505 103.445 42.8003 110.35 46.7922L112.1 43.7609C104.677 39.4626 96.0611 37 86.8752 37L86.8751 37.0002Z" fill="url(#paint11_linear_23_94)"/>
<g filter="url(#filter0_f_23_94)">
<path fill-rule="evenodd" clip-rule="evenodd" d="M87.1581 24.0005C75.583 24.0005 64.7273 27.1034 55.3749 32.5192L57.5801 36.3387C66.281 31.3086 76.3752 28.4168 87.1581 28.4168V24.0007L87.1581 24.0005Z" fill="url(#paint12_linear_23_94)"/>
<path fill-rule="evenodd" clip-rule="evenodd" d="M55.6355 32.37C45.9945 37.9528 37.9523 45.9949 32.3696 55.6359L36.1891 57.8411C41.3809 48.8611 48.8608 41.3807 57.8409 36.1893L55.6357 32.3699L55.6355 32.37Z" fill="url(#paint13_linear_23_94)"/>
<path fill-rule="evenodd" clip-rule="evenodd" d="M32.5187 55.3748C27.1029 64.7272 24 75.5837 24 87.158H28.4161C28.4161 76.3751 31.308 66.2801 36.338 57.5799L32.5185 55.3748L32.5187 55.3748Z" fill="url(#paint14_linear_23_94)"/>
<path fill-rule="evenodd" clip-rule="evenodd" d="M24 86.8442C24 98.4192 27.1029 109.275 32.5187 118.627L36.3383 116.422C31.3079 107.722 28.4163 97.6271 28.4163 86.8442H24.0002H24Z" fill="url(#paint15_linear_23_94)"/>
<path fill-rule="evenodd" clip-rule="evenodd" d="M36.1887 116.16L32.3692 118.365C37.9522 128.006 45.9941 136.048 55.6358 141.631L57.841 137.812C48.8602 132.616 41.3799 125.139 36.1885 116.158L36.1887 116.16Z" fill="url(#paint16_linear_23_94)"/>
<path fill-rule="evenodd" clip-rule="evenodd" d="M57.5794 137.661L55.3742 141.48C64.7266 146.896 75.5831 149.999 87.1574 149.999V145.583C76.3745 145.583 66.2795 142.691 57.5793 137.661L57.5794 137.661Z" fill="url(#paint17_linear_23_94)"/>
<path fill-rule="evenodd" clip-rule="evenodd" d="M116.422 137.661C107.721 142.691 97.6266 145.583 86.8438 145.583V149.999C98.4188 149.999 109.275 146.896 118.627 141.48L116.422 137.66L116.422 137.661Z" fill="url(#paint18_linear_23_94)"/>
<path fill-rule="evenodd" clip-rule="evenodd" d="M137.816 116.16C132.62 125.141 125.141 132.618 116.161 137.813L118.366 141.633C128.007 136.05 136.049 128.008 141.632 118.367L137.812 116.162L137.816 116.16Z" fill="url(#paint19_linear_23_94)"/>
<path fill-rule="evenodd" clip-rule="evenodd" d="M145.585 86.8442C145.585 97.6271 142.693 107.722 137.663 116.422L141.482 118.627C146.898 109.275 150.001 98.4185 150.001 86.8442H145.585H145.585Z" fill="url(#paint20_linear_23_94)"/>
<path fill-rule="evenodd" clip-rule="evenodd" d="M141.482 55.3748L137.663 57.5799C142.693 66.2801 145.584 76.3751 145.584 87.158H150.001C150.001 75.583 146.898 64.7272 141.482 55.3748L141.482 55.3748Z" fill="url(#paint21_linear_23_94)"/>
<path fill-rule="evenodd" clip-rule="evenodd" d="M118.366 32.3699L116.161 36.1893C125.141 41.381 132.621 48.8611 137.812 57.8411L141.632 55.6359C136.05 45.9949 128.004 37.9528 118.363 32.37L118.366 32.3699Z" fill="url(#paint22_linear_23_94)"/>
<path fill-rule="evenodd" clip-rule="evenodd" d="M86.8438 24.0005V28.4165C97.6266 28.4165 107.722 31.3086 116.422 36.3384L118.627 32.519C109.275 27.1031 98.4181 24.0002 86.8438 24.0002L86.8438 24.0005Z" fill="url(#paint23_linear_23_94)"/>
</g>
<defs>
<filter id="filter0_f_23_94" x="-7.62939e-06" y="0.000244141" width="174.001" height="173.999" filterUnits="userSpaceOnUse" color-interpolation-filters="sRGB">
<feFlood flood-opacity="0" result="BackgroundImageFix"/>
<feBlend mode="normal" in="SourceGraphic" in2="BackgroundImageFix" result="shape"/>
<feGaussianBlur stdDeviation="12" result="effect1_foregroundBlur_23_94"/>
</filter>
<linearGradient id="paint0_linear_23_94" x1="63.6665" y1="46.7922" x2="87.1487" y2="40.5052" gradientUnits="userSpaceOnUse">
<stop stop-color="#FF0179"/>
<stop offset="1" stop-color="#FF0000"/>
</linearGradient>
<linearGradient id="paint1_linear_23_94" x1="46.4329" y1="63.7208" x2="63.84" y2="46.6735" gradientUnits="userSpaceOnUse">
<stop stop-color="#FF00FC"/>
<stop offset="1" stop-color="#FF0078"/>
</linearGradient>
<linearGradient id="paint2_linear_23_94" x1="40.5314" y1="87.1252" x2="46.6064" y2="63.5134" gradientUnits="userSpaceOnUse">
<stop stop-color="#8400FF"/>
<stop offset="1" stop-color="#FF00FC"/>
</linearGradient>
<linearGradient id="paint3_linear_23_94" x1="40.5314" y1="86.8752" x2="46.84" y2="110.35" gradientUnits="userSpaceOnUse">
<stop stop-color="#8400FF"/>
<stop offset="1" stop-color="#0600FF"/>
</linearGradient>
<linearGradient id="paint4_linear_23_94" x1="46.6665" y1="110.142" x2="63.84" y2="127.326" gradientUnits="userSpaceOnUse">
<stop stop-color="#0600FF"/>
<stop offset="1" stop-color="#007EFF"/>
</linearGradient>
<linearGradient id="paint5_linear_23_94" x1="63.6665" y1="127.207" x2="87.1487" y2="133.495" gradientUnits="userSpaceOnUse">
<stop stop-color="#007EFF"/>
<stop offset="1" stop-color="#00FCFF"/>
</linearGradient>
<linearGradient id="paint6_linear_23_94" x1="86.9173" y1="133.495" x2="110.399" y2="127.207" gradientUnits="userSpaceOnUse">
<stop stop-color="#00FCFF"/>
<stop offset="1" stop-color="#00FF84"/>
</linearGradient>
<linearGradient id="paint7_linear_23_94" x1="110.168" y1="127.325" x2="127.342" y2="110.141" gradientUnits="userSpaceOnUse">
<stop stop-color="#00FF84"/>
<stop offset="1" stop-color="#00FF00"/>
</linearGradient>
<linearGradient id="paint8_linear_23_94" x1="127.226" y1="110.35" x2="133.476" y2="86.8752" gradientUnits="userSpaceOnUse">
<stop stop-color="#00FF00"/>
<stop offset="1" stop-color="#7EFF00"/>
</linearGradient>
<linearGradient id="paint9_linear_23_94" x1="127.226" y1="63.65" x2="133.476" y2="87.1251" gradientUnits="userSpaceOnUse">
<stop stop-color="#FCFF00"/>
<stop offset="1" stop-color="#7EFF00"/>
</linearGradient>
<linearGradient id="paint10_linear_23_94" x1="110.168" y1="46.6736" x2="127.342" y2="63.8576" gradientUnits="userSpaceOnUse">
<stop stop-color="#FF7E00"/>
<stop offset="1" stop-color="#FCFF00"/>
</linearGradient>
<linearGradient id="paint11_linear_23_94" x1="86.9173" y1="40.5051" x2="110.399" y2="46.7921" gradientUnits="userSpaceOnUse">
<stop stop-color="#FF0000"/>
<stop offset="1" stop-color="#FF7E00"/>
</linearGradient>
<linearGradient id="paint12_linear_23_94" x1="57.6004" y1="36.3384" x2="87.1879" y2="28.4167" gradientUnits="userSpaceOnUse">
<stop stop-color="#FF0179"/>
<stop offset="1" stop-color="#FF0000"/>
</linearGradient>
<linearGradient id="paint13_linear_23_94" x1="35.8856" y1="57.6688" x2="57.8186" y2="36.1891" gradientUnits="userSpaceOnUse">
<stop stop-color="#FF00FC"/>
<stop offset="1" stop-color="#FF0078"/>
</linearGradient>
<linearGradient id="paint14_linear_23_94" x1="28.4496" y1="87.1584" x2="36.1041" y2="57.4074" gradientUnits="userSpaceOnUse">
<stop stop-color="#8400FF"/>
<stop offset="1" stop-color="#FF00FC"/>
</linearGradient>
<linearGradient id="paint15_linear_23_94" x1="28.4496" y1="86.8442" x2="36.3985" y2="116.422" gradientUnits="userSpaceOnUse">
<stop stop-color="#8400FF"/>
<stop offset="1" stop-color="#0600FF"/>
</linearGradient>
<linearGradient id="paint16_linear_23_94" x1="36.18" y1="116.16" x2="57.8186" y2="137.812" gradientUnits="userSpaceOnUse">
<stop stop-color="#0600FF"/>
<stop offset="1" stop-color="#007EFF"/>
</linearGradient>
<linearGradient id="paint17_linear_23_94" x1="57.6005" y1="137.663" x2="87.188" y2="145.585" gradientUnits="userSpaceOnUse">
<stop stop-color="#007EFF"/>
<stop offset="1" stop-color="#00FCFF"/>
</linearGradient>
<linearGradient id="paint18_linear_23_94" x1="86.897" y1="145.585" x2="116.484" y2="137.663" gradientUnits="userSpaceOnUse">
<stop stop-color="#00FCFF"/>
<stop offset="1" stop-color="#00FF84"/>
</linearGradient>
<linearGradient id="paint19_linear_23_94" x1="116.194" y1="137.812" x2="137.832" y2="116.16" gradientUnits="userSpaceOnUse">
<stop stop-color="#00FF84"/>
<stop offset="1" stop-color="#00FF00"/>
</linearGradient>
<linearGradient id="paint20_linear_23_94" x1="137.687" y1="116.422" x2="145.562" y2="86.8442" gradientUnits="userSpaceOnUse">
<stop stop-color="#00FF00"/>
<stop offset="1" stop-color="#7EFF00"/>
</linearGradient>
<linearGradient id="paint21_linear_23_94" x1="137.687" y1="57.5796" x2="145.562" y2="87.1583" gradientUnits="userSpaceOnUse">
<stop stop-color="#FCFF00"/>
<stop offset="1" stop-color="#7EFF00"/>
</linearGradient>
<linearGradient id="paint22_linear_23_94" x1="116.193" y1="36.189" x2="137.832" y2="57.8409" gradientUnits="userSpaceOnUse">
<stop stop-color="#FF7E00"/>
<stop offset="1" stop-color="#FCFF00"/>
</linearGradient>
<linearGradient id="paint23_linear_23_94" x1="86.897" y1="28.4167" x2="116.484" y2="36.3383" gradientUnits="userSpaceOnUse">
<stop stop-color="#FF0000"/>
<stop offset="1" stop-color="#FF7E00"/>
</linearGradient>
</defs>
</svg>
